<svg id="Group_35" data-name="Group 35" xmlns="http://www.w3.org/2000/svg" width="62.011" height="62.165" viewBox="0 0 62.011 62.165">
  <path id="Path_30" data-name="Path 30" d="M-1488.818,317.8h7.069a13.654,13.654,0,0,1,.451,2.171,45.9,45.9,0,0,0,1.226,7.22c.483,1.791,1.382,5.126,4.365,5.126.869,0,3.515,0,5.247-12.423.336-2.378,1.289-2.638,1.793-2.706.5.066,1.458.324,1.8,2.7,1.729,12.426,4.377,12.426,5.247,12.426,2.982,0,3.882-3.334,4.362-5.118a46.792,46.792,0,0,0,1.228-7.229,13.57,13.57,0,0,1,.449-2.17h26.713a1.033,1.033,0,0,0,1.033-1.033,1.033,1.033,0,0,0-1.033-1.033h-15.16l1.463-5.478a3.107,3.107,0,0,0,.808.1,3.1,3.1,0,0,0,2.988-2.3l.32-1.192a3.025,3.025,0,0,0,2.748-2.268l4.595-17.156a3.093,3.093,0,0,0,2.845-2.8,3.094,3.094,0,0,0-2.287-3.274l-2-.535.8-3a3.1,3.1,0,0,0,3.8-2.2,3.1,3.1,0,0,0-2.194-3.8l-5.99-1.585a3.1,3.1,0,0,0-3.8,2.192,3.1,3.1,0,0,0,.31,2.353,3.1,3.1,0,0,0,1.883,1.445l-.8,3-2-.535a3.093,3.093,0,0,0-3.626,1.688,3.092,3.092,0,0,0,1.072,3.852l-4.6,17.147a3.063,3.063,0,0,0,1.241,3.349l-.311,1.179a3.108,3.108,0,0,0,.31,2.353,3.1,3.1,0,0,0,1.882,1.445l-1.609,6.012h-8.69c.239-.555.5-1.117.812-1.7.355-.666.743-1.307,1.131-1.947a24.613,24.613,0,0,0,1.985-3.762c1.878-4.787,2.377-11.343-1.839-15.385-4.074-3.912-11.283-4.058-15.895-.486-4.614-3.572-11.824-3.426-15.9.486-4.219,4.042-3.72,10.6-1.839,15.386a24.614,24.614,0,0,0,1.989,3.764c.386.638.775,1.279,1.129,1.944.31.579.573,1.136.811,1.7h-6.345a1.033,1.033,0,0,0-1.033,1.033,1.033,1.033,0,0,0,1.033,1.033m50.993-44.036a1.033,1.033,0,0,1,0-1.032,1.036,1.036,0,0,1,.894-.518,1.062,1.062,0,0,1,.27.035l5.995,1.605a1.033,1.033,0,0,1,.73.731,1.035,1.035,0,0,1-.267,1,1.037,1.037,0,0,1-1,.266l-1-.267-4-1.069-1-.269a1.017,1.017,0,0,1-.626-.482m4.085,3.549-.8,3-2-.535.8-3Zm-3.96,26.758a1.023,1.023,0,0,1-.482.629,1.039,1.039,0,0,1-.784.1l-5.995-1.605a1.035,1.035,0,0,1-.628-.483,1.032,1.032,0,0,1-.1-.784l.267-1,2,.536a1.035,1.035,0,0,0,.269.035,1.034,1.034,0,0,0,1.023-.9,1.036,1.036,0,0,0-.758-1.134l-2-.533.535-2,2,.535a1.054,1.054,0,0,0,.269.037,1.034,1.034,0,0,0,1.028-.9,1.034,1.034,0,0,0-.761-1.134l-2-.535.536-2,2,.535a1,1,0,0,0,.27.036,1.034,1.034,0,0,0,1.024-.9,1.033,1.033,0,0,0-.758-1.133l-2-.536.535-2,2,.535a.991.991,0,0,0,.269.036,1.033,1.033,0,0,0,1.028-.9,1.034,1.034,0,0,0-.762-1.134l-2-.535.536-2,4,1.069,3.989,1.074Zm-4.632-22.635a1.031,1.031,0,0,1,.994-.768,1.115,1.115,0,0,1,.27.036l9.983,2.674a1.035,1.035,0,0,1,.735.731,1.032,1.032,0,0,1-.267,1,1.034,1.034,0,0,1-1,.266l-9.983-2.674a1.032,1.032,0,0,1-.73-1.266m-2.428,25.024.269-1,3.992,1.073-.267,1a1.033,1.033,0,0,1-1.264.731l-2-.536a1.033,1.033,0,0,1-.628-.482,1.033,1.033,0,0,1-.1-.784Zm-39.717,1.114c-1.632-4.165-2.137-9.8,1.344-13.138s10.041-3.283,13.768.121c.009.009.023.01.035.021s.016.023.027.032c.042.034,4.276,3.356,5.33,6.944a1.034,1.034,0,0,0,.994.743.993.993,0,0,0,.289-.043,1.038,1.038,0,0,0,.617-.5,1.031,1.031,0,0,0,.085-.786c-.9-3.077-3.578-5.817-5.051-7.147,3.81-2.653,9.629-2.468,12.837.611,3.482,3.336,2.977,8.973,1.343,13.136a22.661,22.661,0,0,1-1.83,3.447c-.407.672-.815,1.343-1.187,2.046a18.534,18.534,0,0,0-2.217,6.665,44.8,44.8,0,0,1-1.167,6.917c-.468,1.741-1.076,3.6-2.367,3.6-.571-.067-2.1-2.757-3.2-10.645-.389-2.747-1.643-4.255-3.722-4.486a.931.931,0,0,0-.119.012.968.968,0,0,0-.123-.012c-2.08.231-3.332,1.741-3.72,4.488-1.1,7.883-2.632,10.575-3.2,10.645-1.293,0-1.9-1.86-2.371-3.6a43.9,43.9,0,0,1-1.166-6.908,18.533,18.533,0,0,0-2.217-6.666c-.372-.7-.779-1.371-1.184-2.044a22.869,22.869,0,0,1-1.826-3.449" transform="translate(1489.851 -270.15)" fill="#363e97"/>
  <path id="Path_31" data-name="Path 31" d="M-1480.574,291.107a1.031,1.031,0,0,0,.382-1.387,1.033,1.033,0,0,0-1.375-.424,7.083,7.083,0,0,0-3.364,7.667,1.033,1.033,0,0,0,1.015.819,1.1,1.1,0,0,0,.216-.021,1.044,1.044,0,0,0,.652-.448,1.036,1.036,0,0,0,.146-.779,5.027,5.027,0,0,1,2.329-5.428" transform="translate(1491.235 -264.603)" fill="#363e97"/>
</svg>
