<svg id="Group_36" data-name="Group 36" xmlns="http://www.w3.org/2000/svg" width="44.748" height="62.601" viewBox="0 0 44.748 62.601">
  <path id="Path_32" data-name="Path 32" d="M-1268.516,299.9l0,.008a1.224,1.224,0,0,0,1.116.739,1.222,1.222,0,0,0,.5-.108,1.216,1.216,0,0,0,.616-1.623,1.216,1.216,0,0,0-1.615-.637,1.218,1.218,0,0,0-.623,1.622" transform="translate(1309.578 -261.547)" fill="#363e97"/>
  <path id="Path_33" data-name="Path 33" d="M-1255.9,311.729a1.224,1.224,0,0,0-1.4-1.016,1.222,1.222,0,0,0-1.015,1.4,23.226,23.226,0,0,1,.223,5.262,13.814,13.814,0,0,1-5.641,10.183l-.827.6a9.331,9.331,0,0,1-5.54,1.808,9.432,9.432,0,0,1-2.159-.252l-3.24-.765a30.407,30.407,0,0,1-16.083-9.785,17.6,17.6,0,0,1-3.284-5.319,1.228,1.228,0,0,0,.045-.52c-.006-.052-.607-5.334,6.838-8.724a17.253,17.253,0,0,0,8.33-8.015c5.6.772,7.526,2.348,7.67,2.472a1.145,1.145,0,0,0,1.126.319c.1-.023.2-.044.3-.066a8.662,8.662,0,0,1,9.611,4.96,1.222,1.222,0,0,0,1.614.617,1.223,1.223,0,0,0,.619-1.616,11.2,11.2,0,0,0-4.468-5.025l.005-.013a8.191,8.191,0,0,0,.372-2.441c0-.167-.008-.332-.017-.5h.847a1.223,1.223,0,0,0,1.223-1.223,1.223,1.223,0,0,0-1.223-1.223h-1.382a8.151,8.151,0,0,0-1.3-2.223l.553-.553a1.224,1.224,0,0,0,0-1.73,1.223,1.223,0,0,0-1.728,0l-.641.641a8.119,8.119,0,0,0-3.364-1.278,9.332,9.332,0,0,1,6.342-1.821,1.225,1.225,0,0,0,.891-.344,1.218,1.218,0,0,0,.372-.878v-4.658a1.22,1.22,0,0,0-1.121-1.218,29.429,29.429,0,0,0-5.464.167,12.365,12.365,0,0,0-5.361-5.551l.865-1.293a1.221,1.221,0,0,0-.336-1.7,1.223,1.223,0,0,0-1.7.336l-1.239,1.849a8.93,8.93,0,0,0-1.612-.15,8.7,8.7,0,0,0-.936.052v-1.473a1.224,1.224,0,0,0-1.223-1.223,1.224,1.224,0,0,0-1.223,1.223v2.092a10.452,10.452,0,0,0-3.226,2.106,13.193,13.193,0,0,0-2,2.4,2.782,2.782,0,0,0-2.479-1.528h-3.319a2.783,2.783,0,0,0-2.779,2.779v12.5a12.855,12.855,0,0,0-1.776,1.685c-2.68,3.058-3.213,7.064-3.19,9.886a18.322,18.322,0,0,0,2.02,8.534c.185.493.35.97.511,1.432a21.011,21.011,0,0,0,4.359,7.829,32.874,32.874,0,0,0,17.386,10.581l3.239.764a11.846,11.846,0,0,0,2.721.316,11.764,11.764,0,0,0,6.983-2.278l.826-.6a16.251,16.251,0,0,0,6.636-11.983,25.587,25.587,0,0,0-.246-5.819m-14.921-14.854a11.956,11.956,0,0,0-2.646-1.322,13.635,13.635,0,0,1,1.591-5.4,5.872,5.872,0,0,1,.9-.072,5.73,5.73,0,0,1,5.722,5.724,5.707,5.707,0,0,1-.181,1.43,10.967,10.967,0,0,0-5.391-.354m6.154-15.684v2.261a10.944,10.944,0,0,0-7.442,3.014,14.112,14.112,0,0,0-3.741,8.357,34.053,34.053,0,0,0-4.2-.752q-.556-.515-1.111-.975c0-.03.005-.059.005-.089a10.215,10.215,0,0,1,3.154-7.858c3.979-3.67,10.688-3.984,13.338-3.958m-13.52-6.288a6.452,6.452,0,0,1,1.8.261h0a8.964,8.964,0,0,1,5.008,4.222,17.641,17.641,0,0,0-8.284,3.958,12.156,12.156,0,0,0-3.87,8.034,14.461,14.461,0,0,0-2.968-1.428v-7.07a1.248,1.248,0,0,0,.057-.151c1.348-4.681,4.663-7.826,8.25-7.826m-14.736,3.985a.333.333,0,0,1,.333-.333h3.319a.335.335,0,0,1,.334.333v10.535a9.449,9.449,0,0,0-1.222-.027,8.637,8.637,0,0,0-2.765.584Zm-2.381,15.8a7.428,7.428,0,0,1,5.255-2.845c2.433-.108,5.231,1.213,8.118,3.828a14.979,14.979,0,0,1-7.063,6.711c-4.679,2.13-6.677,5.018-7.529,7.067-.014.036-.027.07-.041.1-1.546-3.424-2.376-10.717,1.26-14.864" transform="translate(1300.337 -269.812)" fill="#363e97"/>
  <path id="Path_34" data-name="Path 34" d="M-1287.877,307.953a1.223,1.223,0,0,0-1.721.16,1.223,1.223,0,0,0,.16,1.721,28.167,28.167,0,0,0,11.455,5.705,1.183,1.183,0,0,0,.283.034,1.221,1.221,0,0,0,1.188-.943,1.224,1.224,0,0,0-.909-1.471,25.712,25.712,0,0,1-10.455-5.207" transform="translate(1303.384 -258.779)" fill="#363e97"/>
  <path id="Path_35" data-name="Path 35" d="M-1291.921,305.538a1.22,1.22,0,0,0-.126,1.721,1.224,1.224,0,0,0,.94.439,1.214,1.214,0,0,0,.782-.283,1.223,1.223,0,0,0,.156-1.721l-.024-.03a1.228,1.228,0,0,0-1.728-.127" transform="translate(1302.666 -259.487)" fill="#363e97"/>
</svg>
