<svg xmlns="http://www.w3.org/2000/svg" width="65.436" height="58.892" viewBox="0 0 65.436 58.892">
  <g id="Group_40" data-name="Group 40" transform="translate(-694.305 -323.902)">
    <g id="Group_37" data-name="Group 37" transform="translate(694.305 323.902)">
      <path id="Path_36" data-name="Path 36" d="M-1065.58,282.5H-1076l-7.749-8.718a3.276,3.276,0,0,0-2.446-1.1h-17.672a3.276,3.276,0,0,0-2.446,1.1l-7.749,8.718h-10.417a3.274,3.274,0,0,0-3.271,3.271v42.534a3.273,3.273,0,0,0,3.271,3.271h58.894a3.274,3.274,0,0,0,3.271-3.271V285.771a3.275,3.275,0,0,0-3.271-3.271m-39.1-7.269a1.091,1.091,0,0,1,.815-.366h17.672a1.091,1.091,0,0,1,.815.366l6.461,7.269h-4.7l-3.573-4.28a3.262,3.262,0,0,0-2.51-1.174h-10.662a3.264,3.264,0,0,0-2.512,1.175l-3.573,4.278h-4.7Zm18.224,7.269H-1103.6l2.406-2.88a1.09,1.09,0,0,1,.838-.393h10.662a1.09,1.09,0,0,1,.837.391Zm21.963,45.805a1.09,1.09,0,0,1-1.09,1.09h-58.894a1.09,1.09,0,0,1-1.09-1.09V285.771a1.09,1.09,0,0,1,1.09-1.09h58.894a1.09,1.09,0,0,1,1.09,1.09Z" transform="translate(1127.745 -272.684)" fill="#363e97"/>
      <path id="Path_37" data-name="Path 37" d="M-1072.264,284.507h-47.986a3.275,3.275,0,0,0-3.271,3.272v23.993a3.275,3.275,0,0,0,3.271,3.272h47.986a3.277,3.277,0,0,0,3.273-3.272V287.779a3.277,3.277,0,0,0-3.273-3.272m1.091,27.266a1.092,1.092,0,0,1-1.091,1.091h-47.986a1.091,1.091,0,0,1-1.09-1.091V287.779a1.092,1.092,0,0,1,1.09-1.091h47.986a1.092,1.092,0,0,1,1.091,1.091Z" transform="translate(1128.976 -269.239)" fill="#363e97"/>
      <path id="Path_38" data-name="Path 38" d="M-1093.11,295.172a2.138,2.138,0,0,0-1.848-.971,2.172,2.172,0,0,0-1.817,1.024l-3.683,5.9-5.855-8.364a2.184,2.184,0,0,0-1.716-.929,2.187,2.187,0,0,0-1.774.817l-3.124,3.907h-3.839v2.181h3.839a2.17,2.17,0,0,0,1.7-.817l3.125-3.908,5.855,8.363a2.166,2.166,0,0,0,1.785.93h.057a2.181,2.181,0,0,0,1.795-1.024l3.684-5.9.92,1.381a2.178,2.178,0,0,0,1.816.971h12.5v-2.181h-12.5Z" transform="translate(1130.944 -267.105)" fill="#363e97"/>
      <path id="Path_39" data-name="Path 39" d="M-1086.471,309.842a3.271,3.271,0,0,0-3.271,3.272,3.271,3.271,0,0,0,3.271,3.271,3.271,3.271,0,0,0,3.271-3.271,3.275,3.275,0,0,0-3.271-3.272m0,4.362a1.09,1.09,0,0,1-1.09-1.09,1.09,1.09,0,0,1,1.09-1.091,1.091,1.091,0,0,1,1.09,1.091,1.09,1.09,0,0,1-1.09,1.09" transform="translate(1138.82 -261.855)" fill="#363e97"/>
      <path id="Path_40" data-name="Path 40" d="M-1092.135,309.842h-2.181a2.184,2.184,0,0,0-2.181,2.181V314.2a2.185,2.185,0,0,0,2.181,2.181h2.181a2.184,2.184,0,0,0,2.181-2.181v-2.181a2.184,2.184,0,0,0-2.181-2.181m-2.181,4.362v-2.181h2.181V314.2Z" transform="translate(1136.851 -261.855)" fill="#363e97"/>
      <path id="Path_41" data-name="Path 41" d="M-1098.892,309.842h-2.18a2.185,2.185,0,0,0-2.182,2.181V314.2a2.185,2.185,0,0,0,2.182,2.181h2.18a2.184,2.184,0,0,0,2.181-2.181v-2.181a2.184,2.184,0,0,0-2.181-2.181m-2.18,4.362v-2.181h2.18V314.2Z" transform="translate(1134.882 -261.855)" fill="#363e97"/>
      <path id="Path_42" data-name="Path 42" d="M-1105.649,309.842h-2.181a2.184,2.184,0,0,0-2.181,2.181V314.2a2.184,2.184,0,0,0,2.181,2.181h2.181a2.184,2.184,0,0,0,2.181-2.181v-2.181a2.184,2.184,0,0,0-2.181-2.181m-2.181,4.362v-2.181h2.181V314.2Z" transform="translate(1132.913 -261.855)" fill="#363e97"/>
    </g>
  </g>
</svg>
