<svg xmlns="http://www.w3.org/2000/svg" width="66.406" height="66.405" viewBox="0 0 66.406 66.405">
  <g id="Group_43" data-name="Group 43" transform="translate(-1163.418 -316.39)">
    <g id="Group_42" data-name="Group 42">
      <path id="Path_181" data-name="Path 181" d="M-761.17,297.856h1.107V305.6a3.329,3.329,0,0,0,1.968,3.014.82.82,0,0,0,.013.111l2.153,12.915a3.309,3.309,0,0,0,3.275,2.774h4.765v2.213h-4.427a3.32,3.32,0,0,0-3.32,3.32,3.32,3.32,0,0,0,3.32,3.32h15.494a3.32,3.32,0,0,0,3.32-3.32,3.32,3.32,0,0,0-3.32-3.32h-4.427v-2.213h4.765a3.309,3.309,0,0,0,3.275-2.774l2.153-12.918a.689.689,0,0,1,.013-.11,3.33,3.33,0,0,0,1.968-3.013v-7.747h1.107a3.32,3.32,0,0,0,3.32-3.32,3.32,3.32,0,0,0-3.32-3.32h-4.427v-4.427a6.647,6.647,0,0,0-6.64-6.64h-2.214V277.9a3.286,3.286,0,0,0,2.292-1.209,3.29,3.29,0,0,0,.708-2.492l-.553-4.427a3.32,3.32,0,0,0-3.294-2.908h-4.946a3.32,3.32,0,0,0-3.294,2.908l-.553,4.427a3.289,3.289,0,0,0,.708,2.492,3.288,3.288,0,0,0,2.292,1.209v2.245H-750.1a6.647,6.647,0,0,0-6.641,6.64v4.427h-4.427a3.32,3.32,0,0,0-3.32,3.32,3.32,3.32,0,0,0,3.32,3.32m4.427,0a3.272,3.272,0,0,0,.775-.1,3.3,3.3,0,0,0,2.545,1.207H-749v3.32h-3.628a5.517,5.517,0,0,0-5.176,3.588,1.053,1.053,0,0,1-.05-.267v-7.747Zm14.388,4.427h-4.427v-2.213h4.427Zm6.64,27.669a1.106,1.106,0,0,1-1.107,1.107h-15.494a1.106,1.106,0,0,1-1.107-1.107,1.107,1.107,0,0,1,1.107-1.107h15.494a1.106,1.106,0,0,1,1.107,1.107m-7.747-3.32h-2.214v-2.213h2.214Zm10.223-18.268-2.153,12.918a1.106,1.106,0,0,1-1.091.923h-16.171a1.106,1.106,0,0,1-1.091-.926l-2.153-12.915a3.32,3.32,0,0,1,.741-2.693,3.324,3.324,0,0,1,2.534-1.174h16.11a3.322,3.322,0,0,1,2.532,1.174,3.325,3.325,0,0,1,.741,2.693m1.951-2.76a1.049,1.049,0,0,1-.049.267,5.518,5.518,0,0,0-5.176-3.588h-3.629v-3.32h4.427a3.3,3.3,0,0,0,2.545-1.207,3.271,3.271,0,0,0,.775.1h1.107Zm3.32-12.174a1.106,1.106,0,0,1,1.107,1.107,1.106,1.106,0,0,1-1.107,1.107h-4.427a1.107,1.107,0,0,1-1.107-1.107,1.107,1.107,0,0,1,1.107-1.107Zm-20.726-18.953.553-4.427a1.108,1.108,0,0,1,1.1-.97h4.946a1.108,1.108,0,0,1,1.1.97l.553,4.427a1.1,1.1,0,0,1-.269.87,1.11,1.11,0,0,1-.83.374h-6.052a1.11,1.11,0,0,1-.83-.374,1.1,1.1,0,0,1-.269-.87m3.018,3.457h2.214v2.213h-2.214Zm-8.854,8.855a4.428,4.428,0,0,1,4.427-4.428h11.067a4.428,4.428,0,0,1,4.427,4.428v5.29a3.271,3.271,0,0,0-.442,4.433,1.087,1.087,0,0,1-.665.238h-17.708a1.081,1.081,0,0,1-.664-.238,3.271,3.271,0,0,0-.443-4.433Zm-6.641,6.64h4.427a1.107,1.107,0,0,1,1.107,1.107,1.107,1.107,0,0,1-1.107,1.107h-4.427a1.107,1.107,0,0,1-1.107-1.107,1.107,1.107,0,0,1,1.107-1.107" transform="translate(1927.908 49.523)" fill="#363e97"/>
      <path id="Path_189" data-name="Path 189" d="M-715.214,298.576h-11.069a2.213,2.213,0,0,0-2.212,2.214V303a2.213,2.213,0,0,0,2.212,2.213h11.069A2.213,2.213,0,0,0-713,303v-2.214a2.213,2.213,0,0,0-2.213-2.214m-11.069,2.214h11.067V303h-11.067Z" transform="translate(1938.397 58.764)" fill="#363e97"/>
      <path id="Path_185" data-name="Path 185" d="M-715.214,305.432h-11.069a2.213,2.213,0,0,0-2.212,2.214v2.213a2.213,2.213,0,0,0,2.212,2.214h11.069A2.213,2.213,0,0,0-713,309.859v-2.213a2.213,2.213,0,0,0-2.213-2.214m-11.069,2.214h11.067v2.213h-11.067Z" transform="translate(1938.397 60.761)" fill="#363e97"/>
      <path id="Path_182" data-name="Path 182" d="M-738.53,272.4h3.52l.332,1.661-.775.209a2.65,2.65,0,0,0-1.736,1.467,2.645,2.645,0,0,0,.045,2.273l3.817,7.725a2.659,2.659,0,0,0,1.783,1.414,2.662,2.662,0,0,0,2.223-.487l.814-.633.535.8-2.487,2.489a1.1,1.1,0,0,0-.3,1.076,1.111,1.111,0,0,0,.79.793,1.113,1.113,0,0,0,1.077-.3l3.129-3.132a1.1,1.1,0,0,0,.138-1.395l-1.184-1.774a5.756,5.756,0,0,0,1.361-4.874l5.556-6.205h7.927V303.39h-2.214V291.214a3.32,3.32,0,0,0-3.322-3.32h-3.319a3.319,3.319,0,0,0-3.32,3.32,1.106,1.106,0,0,0,1.105,1.107,1.106,1.106,0,0,0,1.107-1.107,1.107,1.107,0,0,1,1.108-1.107h3.319a1.108,1.108,0,0,1,1.108,1.107V303.39h-3.425a5.36,5.36,0,0,0,.876-1.844l1.065-4.26a2.21,2.21,0,0,0-.4-1.9,2.213,2.213,0,0,0-1.745-.852h-8.233a2.215,2.215,0,0,0-1.745.852,2.215,2.215,0,0,0-.4,1.9l1.064,4.26a5.332,5.332,0,0,0,1.263,2.337,3.316,3.316,0,0,0-1.6,2.826V329.95a3.32,3.32,0,0,0,3.32,3.322h17.708a3.322,3.322,0,0,0,3.322-3.322V306.708a3.3,3.3,0,0,0-.3-1.369,1.111,1.111,0,0,0,.3-.755v-34.4a3.321,3.321,0,0,0-3.322-3.32h-12.727a3.317,3.317,0,0,0-2.465,1.107l-5.495,6.117a5.739,5.739,0,0,0-3.187-.536l-.5-2.485a1.106,1.106,0,0,0-1.085-.883h-4.427a1.107,1.107,0,0,0-1.107,1.105,1.106,1.106,0,0,0,1.107,1.107m28.777,1.107h1.105a3.372,3.372,0,0,0,1.108-.2v30.17h-.372a3.267,3.267,0,0,0-.736-.088h-1.105Zm-18.5,23.242h8.233l-1.064,4.26a3.143,3.143,0,0,1-3.052,2.381,3.144,3.144,0,0,1-3.052-2.381Zm20.718,33.2a1.108,1.108,0,0,1-1.108,1.108h-17.708a1.108,1.108,0,0,1-1.107-1.108V306.708a1.107,1.107,0,0,1,1.107-1.107h15.062a1.065,1.065,0,0,0,.433.089h2.647a1.107,1.107,0,0,1,.674,1.018Zm-1.108-60.87a1.107,1.107,0,0,1,1.108,1.107,1.076,1.076,0,0,1-.34.786,1.049,1.049,0,0,1-.768.319h-9.6a3.263,3.263,0,0,0-.005-2.212Zm-13.547.367a1.1,1.1,0,0,1,.82-.367,1.107,1.107,0,0,1,1.006.656,1.109,1.109,0,0,1-.185,1.187l-5.792,6.467-.332-.677a5.792,5.792,0,0,0-.377-.65c-.045-.07-.1-.133-.147-.2-.1-.132-.2-.265-.3-.39-.016-.017-.028-.037-.044-.057Zm-9.653,6.272a3.584,3.584,0,0,1,2.1.684,3.411,3.411,0,0,1,1.084,1.289l.745,1.51a3.1,3.1,0,0,1,.209.518,3.546,3.546,0,0,1-.394,2.922l-.65-.975a1.108,1.108,0,0,0-1.524-.292,1.108,1.108,0,0,0-.318,1.52l.861,1.291-.936.727a.436.436,0,0,1-.369.08.44.44,0,0,1-.3-.236l-3.826-7.734a.419.419,0,0,1-.009-.364.444.444,0,0,1,.3-.248l.633-.172.161.8a1.108,1.108,0,0,0,1.085.891.991.991,0,0,0,.222-.023,1.1,1.1,0,0,0,.7-.474,1.1,1.1,0,0,0,.16-.83l-.172-.859c.084,0,.156-.028.235-.028" transform="translate(1935.15 49.523)" fill="#363e97"/>
    </g>
  </g>
</svg>
