<svg xmlns="http://www.w3.org/2000/svg" width="64.668" height="64.669" viewBox="0 0 64.668 64.669">
  <g id="Group_41" data-name="Group 41" transform="translate(-929.74 -318.126)">
    <path id="Path_179" data-name="Path 179" d="M-884.941,279.685a4.126,4.126,0,0,0-2.087.58v-1.623a4.177,4.177,0,0,0-4.173-4.173,4.158,4.158,0,0,0-2.335.717,4.166,4.166,0,0,0-3.923-2.8,4.164,4.164,0,0,0-3.922,2.8,4.159,4.159,0,0,0-2.336-.717,4.168,4.168,0,0,0-4.024,3.129h-6.817a12.507,12.507,0,0,0-2.717-5.122v-.093h-.085a12.476,12.476,0,0,0-9.3-4.173h-13.56a5.221,5.221,0,0,0-5.215,5.216v14.6a5.22,5.22,0,0,0,5.215,5.215h13.56a12.475,12.475,0,0,0,9.3-4.171h.085v-.093a12.512,12.512,0,0,0,2.717-5.123h6.67v19.387l-1.043-1.043v-5.305a4.7,4.7,0,0,0-4.694-4.693,4.7,4.7,0,0,0-4.693,4.693V307.07l5.446,9.983a7.262,7.262,0,0,0,3.145,3.036l1.84.919V332.88h2.086V319.719l-2.994-1.5a5.194,5.194,0,0,1-2.246-2.168l-5.192-9.516v-9.643a2.61,2.61,0,0,1,2.607-2.607,2.61,2.61,0,0,1,2.609,2.607v6.169l2.7,2.7h2.518v-21.9h2.086V277.6h-1.8a2.078,2.078,0,0,1,1.8-1.042,2.09,2.09,0,0,1,2.087,2.086v17.731h2.086V276.556a2.09,2.09,0,0,1,2.086-2.087,2.09,2.09,0,0,1,2.087,2.087v19.817h2.086V278.642a2.089,2.089,0,0,1,2.086-2.086,2.089,2.089,0,0,1,2.087,2.086v17.731h2.086V283.856a2.089,2.089,0,0,1,2.087-2.086,2.09,2.09,0,0,1,2.086,2.086v31.291a5.187,5.187,0,0,1-2.884,4.666l-1.289.644V332.88h2.087V321.747l.136-.068a7.259,7.259,0,0,0,4.036-6.531V283.856a4.175,4.175,0,0,0-4.171-4.171m-41.722,11.473h-13.56a3.133,3.133,0,0,1-3.129-3.129v-14.6a3.134,3.134,0,0,1,3.129-3.13h13.56a10.359,10.359,0,0,1,6.231,2.087h-1.016a3.133,3.133,0,0,0-3.129,3.129v10.431a3.133,3.133,0,0,0,3.129,3.129h1.016a10.366,10.366,0,0,1-6.231,2.086m8.324-4.173h-3.11a1.043,1.043,0,0,1-1.043-1.042V275.513a1.044,1.044,0,0,1,1.043-1.043h3.11a10.373,10.373,0,0,1,2.1,6.258,10.37,10.37,0,0,1-2.1,6.258m12.536-5.215h-8.4c.028-.345.053-.691.053-1.043s-.025-.7-.053-1.042h8.4Z" transform="translate(1875.177 49.915)" fill="#363e97"/>
    <path id="Path_187" data-name="Path 187" d="M-911.419,295.1l-1.475,1.475,2.592,2.592a11.406,11.406,0,0,1,3.36,8.114v4.2h2.087v-4.2a13.47,13.47,0,0,0-3.972-9.587Z" transform="translate(1884.661 57.751)" fill="#363e97"/>
    <path id="Path_197" data-name="Path 197" d="M-942.207,288.131h14.6V271.442h-14.6Zm2.087-14.6h10.431v12.516H-940.12Z" transform="translate(1876.118 50.856)" fill="#363e97"/>
    <rect id="Rectangle_105" data-name="Rectangle 105" width="2.086" height="2.087" transform="translate(938.083 332.729)" fill="#363e97"/>
    <rect id="Rectangle_106" data-name="Rectangle 106" width="2.086" height="2.087" transform="translate(942.256 332.729)" fill="#363e97"/>
  </g>
</svg>
