<svg xmlns="http://www.w3.org/2000/svg" width="72.633" height="67.586" viewBox="0 0 72.633 67.586">
  <g id="Group_45" data-name="Group 45" transform="translate(-1395.205 -315.21)">
    <g id="Group_44" data-name="Group 44">
      <path id="Path_183" data-name="Path 183" d="M-516.33,301.758A10.675,10.675,0,0,0-519.2,298.7v-3.248a2.824,2.824,0,0,0-2.82-2.822h-.163V281.626a13.883,13.883,0,0,0-13.869-13.867,13.747,13.747,0,0,0-7.344,2.1,10.9,10.9,0,0,0-8.368-3.909,10.942,10.942,0,0,0-10.931,10.929,10.867,10.867,0,0,0,.222,2.194h-1.519a4.942,4.942,0,0,0-4.936,4.936V295.02a7.351,7.351,0,0,0-4.3-1.393,7.356,7.356,0,0,0-7.348,7.348c0,3.935,2.074,8.048,6.163,12.226a40.6,40.6,0,0,0,5.482,4.654v3.017a1.064,1.064,0,0,0,1.064,1.063,1.063,1.063,0,0,0,1.064-1.063v-2.916a40.532,40.532,0,0,0,5.235-4.361,1.064,1.064,0,0,0,.006-1.5,1.063,1.063,0,0,0-1.5-.006,39.037,39.037,0,0,1-4.728,3.967c-2.3-1.627-10.654-8.036-10.654-15.076a5.225,5.225,0,0,1,5.22-5.22,5.243,5.243,0,0,1,4.515,2.6,1.064,1.064,0,0,0,.92.528,1.066,1.066,0,0,0,.919-.528,5.24,5.24,0,0,1,4.513-2.6,5.225,5.225,0,0,1,5.22,5.22A13.187,13.187,0,0,1-560,308.539a1.066,1.066,0,0,0,.243,1.485,1.065,1.065,0,0,0,1.485-.243A15.238,15.238,0,0,0-555,300.975a7.356,7.356,0,0,0-7.348-7.348,7.357,7.357,0,0,0-4.442,1.5v-5.086a4.9,4.9,0,0,0,2.806.879h16.4v40.487h-16.4A2.81,2.81,0,0,1-566.8,328.6V325.72a1.063,1.063,0,0,0-1.064-1.064,1.065,1.065,0,0,0-1.064,1.064V328.6a4.941,4.941,0,0,0,4.936,4.934h22.641a4.941,4.941,0,0,0,4.936-4.934V299.191a1.064,1.064,0,0,0-1.064-1.064,1.064,1.064,0,0,0-1.064,1.064V328.6a2.81,2.81,0,0,1-2.808,2.806h-4.112V290.924h4.112a4.9,4.9,0,0,0,2.808-.879v4.3a1.064,1.064,0,0,0,1.064,1.064,1.064,1.064,0,0,0,1.064-1.064v-10.33a4.94,4.94,0,0,0-4.644-4.926,10.882,10.882,0,0,0,.225-2.2,10.864,10.864,0,0,0-1.356-5.265,11.643,11.643,0,0,1,6.139-1.73,11.753,11.753,0,0,1,11.739,11.739v11.008h-.161a2.824,2.824,0,0,0-2.82,2.822V298.7a10.66,10.66,0,0,0-2.867,3.054,18.546,18.546,0,0,0-2.663,9.93,18.546,18.546,0,0,0,2.663,9.93c1.811,2.813,4.266,4.362,6.913,4.362s5.1-1.55,6.913-4.362a18.535,18.535,0,0,0,2.663-9.93,18.535,18.535,0,0,0-2.663-9.93m-35.43-33.678a8.813,8.813,0,0,1,8.8,8.8,8.813,8.813,0,0,1-8.8,8.8,8.813,8.813,0,0,1-8.8-8.8,8.813,8.813,0,0,1,8.8-8.8M-563.987,281.2h2.19a10.918,10.918,0,0,0,1.7,2.731h-6.691a2.81,2.81,0,0,1,2.8-2.731m22.641,0a2.81,2.81,0,0,1,2.808,2.808v1.977a2.81,2.81,0,0,1-2.808,2.806h-22.641a2.81,2.81,0,0,1-2.8-2.731h9.112a10.864,10.864,0,0,0,5.919,1.749,10.864,10.864,0,0,0,5.919-1.749h3.275A1.065,1.065,0,0,0-541.5,285a1.065,1.065,0,0,0-1.064-1.064h-.854a10.936,10.936,0,0,0,1.7-2.73h.377Zm16.184,14.251a.694.694,0,0,1,.693-.694h2.452a.694.694,0,0,1,.692.694v2.219a6.738,6.738,0,0,0-1.919-.279,6.737,6.737,0,0,0-1.919.279Zm7.043,25.01c-1.405,2.184-3.225,3.386-5.124,3.386s-3.718-1.2-5.124-3.386a16.4,16.4,0,0,1-2.323-8.778,16.4,16.4,0,0,1,2.323-8.778c1.406-2.184,3.226-3.386,5.124-3.386s3.719,1.2,5.124,3.386a16.4,16.4,0,0,1,2.323,8.778,16.4,16.4,0,0,1-2.323,8.778" transform="translate(1981.506 49.257)" fill="#363e97"/>
      <path id="Path_198" data-name="Path 198" d="M-556.508,283.938a7.777,7.777,0,0,0,7.768-7.769,7.777,7.777,0,0,0-7.768-7.768,7.778,7.778,0,0,0-7.768,7.768,7.778,7.778,0,0,0,7.768,7.769m0-13.409a5.647,5.647,0,0,1,5.641,5.64,5.647,5.647,0,0,1-5.641,5.641,5.646,5.646,0,0,1-5.64-5.641,5.646,5.646,0,0,1,5.64-5.64" transform="translate(1986.254 49.97)" fill="#363e97"/>
      <path id="Path_202" data-name="Path 202" d="M-558.021,273.994a1.064,1.064,0,0,0,1.064-1.064V271.6a1.064,1.064,0,0,0-1.064-1.064,1.064,1.064,0,0,0-1.064,1.064v1.329a1.064,1.064,0,0,0,1.064,1.064" transform="translate(1987.767 50.593)" fill="#363e97"/>
      <path id="Path_200" data-name="Path 200" d="M-555.031,275.72h.025a1.065,1.065,0,0,0,1.064-1.055A1.064,1.064,0,0,0-555,273.592h-.017a1.062,1.062,0,0,0-1.072,1.055,1.062,1.062,0,0,0,1.054,1.073" transform="translate(1988.641 51.483)" fill="#363e97"/>
      <path id="Path_199" data-name="Path 199" d="M-558.036,278.467h.026a1.066,1.066,0,0,0,1.064-1.055A1.064,1.064,0,0,0-558,276.34h-.026a1.065,1.065,0,0,0-1.064,1.055,1.064,1.064,0,0,0,1.055,1.073" transform="translate(1987.765 52.283)" fill="#363e97"/>
      <path id="Path_201" data-name="Path 201" d="M-560.717,275.72h.009a1.065,1.065,0,0,0,1.064-1.055,1.064,1.064,0,0,0-1.054-1.073h-.017a1.061,1.061,0,0,0-1.073,1.055,1.064,1.064,0,0,0,1.055,1.073Z" transform="translate(1986.979 51.483)" fill="#363e97"/>
      <path id="Path_186" data-name="Path 186" d="M-535.939,293.975A1.065,1.065,0,0,0-537,295.039v16.733a1.063,1.063,0,0,0,1.064,1.063,1.063,1.063,0,0,0,1.064-1.063V295.039a1.065,1.065,0,0,0-1.064-1.064" transform="translate(1994.202 57.423)" fill="#363e97"/>
      <path id="Path_193" data-name="Path 193" d="M-582.323,294.867h.008a1.063,1.063,0,0,0,1.064-1.055,1.063,1.063,0,0,0-1.055-1.073l-1.628-.012h-.008a1.063,1.063,0,0,0-1.064,1.055,1.062,1.062,0,0,0,1.055,1.072Z" transform="translate(1980.212 57.059)" fill="#363e97"/>
      <path id="Path_191" data-name="Path 191" d="M-582.365,295.894l-1.417.8a1.066,1.066,0,0,0-.4,1.45,1.063,1.063,0,0,0,.927.54,1.055,1.055,0,0,0,.523-.139l1.417-.8a1.064,1.064,0,0,0,.4-1.45,1.064,1.064,0,0,0-1.45-.4" transform="translate(1980.413 57.942)" fill="#363e97"/>
      <path id="Path_194" data-name="Path 194" d="M-581.258,290.058l-1.4-.825a1.066,1.066,0,0,0-1.457.378,1.064,1.064,0,0,0,.38,1.457l1.4.825a1.055,1.055,0,0,0,.537.146,1.064,1.064,0,0,0,.918-.524,1.063,1.063,0,0,0-.378-1.457" transform="translate(1980.429 55.998)" fill="#363e97"/>
      <path id="Path_195" data-name="Path 195" d="M-555.3,293.782a1.063,1.063,0,0,0-1.064-1.055h-.008l-1.629.012a1.063,1.063,0,0,0-1.055,1.072,1.063,1.063,0,0,0,1.064,1.056h.006l1.629-.013a1.064,1.064,0,0,0,1.056-1.072" transform="translate(1987.776 57.059)" fill="#363e97"/>
      <path id="Path_192" data-name="Path 192" d="M-556.572,296.7l-1.415-.8a1.063,1.063,0,0,0-1.45.4,1.063,1.063,0,0,0,.4,1.45l1.417.8a1.052,1.052,0,0,0,.523.139,1.061,1.061,0,0,0,.926-.54,1.063,1.063,0,0,0-.4-1.45" transform="translate(1987.624 57.942)" fill="#363e97"/>
      <path id="Path_196" data-name="Path 196" d="M-557.694,289.232l-1.4.825a1.065,1.065,0,0,0-.378,1.457,1.065,1.065,0,0,0,.918.524,1.059,1.059,0,0,0,.539-.146l1.4-.825a1.065,1.065,0,0,0,.378-1.457,1.065,1.065,0,0,0-1.457-.378" transform="translate(1987.61 55.998)" fill="#363e97"/>
    </g>
  </g>
</svg>
