<svg xmlns="http://www.w3.org/2000/svg" width="65.389" height="54.491" viewBox="0 0 65.389 54.491">
  <g id="Group_47" data-name="Group 47" transform="translate(-1631.068 -328.305)">
    <g id="Group_46" data-name="Group 46">
      <path id="Path_180" data-name="Path 180" d="M-349.147,284.073a27.074,27.074,0,0,0-19.265-7.98,27.251,27.251,0,0,0-13.348,3.488l1.071,1.9a25.039,25.039,0,0,1,11.186-3.173v2.146h2.181v-2.127A24.833,24.833,0,0,1-351.5,284.88l-6.905,6.908a1.087,1.087,0,0,0,0,1.537,14.087,14.087,0,0,1,4.155,10.014A14.184,14.184,0,0,1-368.413,317.5a14.076,14.076,0,0,1-10.014-4.153,1.087,1.087,0,0,0-.77-.322h0a1.093,1.093,0,0,0-.772.322l-7.708,7.71a1.1,1.1,0,0,0-.319.772,1.09,1.09,0,0,0,.319.77,27.071,27.071,0,0,0,19.265,7.981,27.276,27.276,0,0,0,27.245-27.246,27.071,27.071,0,0,0-7.98-19.265m-19.265,44.33a24.894,24.894,0,0,1-16.938-6.586l6.179-6.178c.074.062.152.118.226.18.169.143.341.278.515.412.236.185.474.365.718.535.181.127.363.245.548.363.251.16.5.311.759.458q.283.159.572.309.4.2.806.381c.195.087.391.174.59.253.279.111.563.209.848.3.2.067.4.136.6.2.3.088.6.158.908.229.2.044.387.1.584.133.338.063.682.107,1.025.151.168.022.333.05.5.067.515.05,1.033.077,1.557.077a16.365,16.365,0,0,0,16.347-16.348c0-.523-.027-1.042-.075-1.557-.017-.168-.048-.334-.068-.5-.044-.345-.089-.687-.152-1.025-.037-.2-.088-.389-.133-.582-.07-.3-.141-.608-.227-.909-.061-.2-.128-.4-.2-.6-.1-.288-.194-.571-.3-.851-.079-.2-.167-.394-.252-.589-.121-.272-.247-.541-.382-.807-.1-.191-.2-.38-.307-.567-.147-.262-.3-.517-.462-.768-.115-.181-.234-.362-.358-.54-.172-.247-.354-.489-.541-.728-.132-.169-.265-.34-.4-.5-.065-.076-.12-.156-.186-.231l6.179-6.177a24.893,24.893,0,0,1,6.588,16.936A25.094,25.094,0,0,1-368.413,328.4" transform="translate(2037.625 52.212)" fill="#363e97"/>
      <path id="Path_188" data-name="Path 188" d="M-378.74,295.4v6.538a1.089,1.089,0,0,0,1.09,1.09h2.18v2.18a1.09,1.09,0,0,0,1.089,1.09h6.54a1.09,1.09,0,0,0,1.09-1.09v-2.18h2.18a1.088,1.088,0,0,0,1.089-1.09V295.4a1.088,1.088,0,0,0-1.089-1.09h-3.27v2.18h2.18v4.359h-2.18a1.09,1.09,0,0,0-1.09,1.09v2.18h-4.36v-2.18a1.089,1.089,0,0,0-1.09-1.09h-2.179v-4.359h2.179a1.089,1.089,0,0,0,1.09-1.09v-3.27h-2.179v2.18h-2.18a1.089,1.089,0,0,0-1.09,1.09" transform="translate(2040.322 56.884)" fill="#363e97"/>
      <path id="Path_190" data-name="Path 190" d="M-373.676,287.79v14.167a1.091,1.091,0,0,0,.874,1.069,1.113,1.113,0,0,0,.216.021,1.09,1.09,0,0,0,1-.666l8.718-20.707-2.009-.846-6.624,15.733V287.79Z" transform="translate(2041.798 53.592)" fill="#363e97"/>
      <rect id="Rectangle_104" data-name="Rectangle 104" width="2.18" height="2.18" transform="translate(1663.762 340.292)" fill="#363e97"/>
      <path id="Path_184" data-name="Path 184" d="M-384.431,309.245h3.859v-2.18h-2.18v-8.718h4.36v-2.18h-4.36v-7.628h10.9v-2.18h-10.9v-3.27a1.088,1.088,0,0,0-1.09-1.089h-5.448a1.089,1.089,0,0,0-1.09,1.089v3.27h-4.359a1.088,1.088,0,0,0-1,.647l-4.36,9.808a1.091,1.091,0,0,0-.094.443v13.078h-1.09a1.089,1.089,0,0,0-1.09,1.09v4.359a1.089,1.089,0,0,0,1.09,1.09h6.334a6.537,6.537,0,0,0,5.654,3.27,6.545,6.545,0,0,0,6.538-6.538,6.5,6.5,0,0,0-1.679-4.36m-.5-22.886h-3.27v-2.18h3.27Zm-9.1,2.18h9.1v7.628h-12.491Zm-1.8,25.066a6.443,6.443,0,0,0,.1,1.089h-4.458v-2.179h1.09a1.09,1.09,0,0,0,1.09-1.09V303.8h3.27v-2.18h-3.27v-3.27h13.077v8.718h-4.359a6.546,6.546,0,0,0-6.538,6.54m6.538,4.359a4.365,4.365,0,0,1-4.36-4.359,4.365,4.365,0,0,1,4.36-4.36,4.364,4.364,0,0,1,4.359,4.36,4.363,4.363,0,0,1-4.359,4.359" transform="translate(2033.437 53.933)" fill="#363e97"/>
      <rect id="Rectangle_101" data-name="Rectangle 101" width="2.18" height="2.18" transform="translate(1655.043 360.998)" fill="#363e97"/>
      <rect id="Rectangle_100" data-name="Rectangle 100" width="2.18" height="2.18" transform="translate(1643.055 366.448)" fill="#363e97"/>
      <rect id="Rectangle_103" data-name="Rectangle 103" width="2.18" height="2.18" transform="translate(1657.223 350.1)" fill="#363e97"/>
      <rect id="Rectangle_102" data-name="Rectangle 102" width="2.18" height="2.18" transform="translate(1640.876 355.55)" fill="#363e97"/>
      <rect id="Rectangle_107" data-name="Rectangle 107" width="2.18" height="3.27" transform="translate(1646.325 330.483)" fill="#363e97"/>
      <rect id="Rectangle_108" data-name="Rectangle 108" width="2.18" height="3.082" transform="matrix(0.707, -0.707, 0.707, 0.707, 1641.195, 333.434)" fill="#363e97"/>
      <rect id="Rectangle_109" data-name="Rectangle 109" width="3.081" height="2.18" transform="matrix(0.707, -0.707, 0.707, 0.707, 1649.914, 334.072)" fill="#363e97"/>
    </g>
  </g>
</svg>
