<svg xmlns="http://www.w3.org/2000/svg" width="62.729" height="62.729" viewBox="0 0 62.729 62.729">
  <g id="Group_48" data-name="Group 48" transform="translate(-226.315 -498.307)">
    <path id="Path_142" data-name="Path 142" d="M-1427.4,430.156v-3.2h-14.164v3.2l.794,2.386a6.594,6.594,0,0,0,1.531,2.508h-4.349V422.91a2.025,2.025,0,0,1,2.024-2.024,2.025,2.025,0,0,1,2.022,2.024v2.024h2.024V422.91a4.051,4.051,0,0,0-4.046-4.047,4.051,4.051,0,0,0-4.047,4.047V435.05h-8.095v-2.024h2.024a3.038,3.038,0,0,0,3.035-3.035V422.91a3.039,3.039,0,0,0-3.035-3.036h-7.082v-6.324a5.824,5.824,0,0,0-5.816-5.817,5.8,5.8,0,0,0-4.5,2.132l-5.592,6.833-2.98-2.982a3.185,3.185,0,0,0-2.234-.925,3.161,3.161,0,0,0-3.158,3.158,3.184,3.184,0,0,0,.925,2.234l7.849,7.849a3.179,3.179,0,0,0,2.233.925,3.162,3.162,0,0,0,3.157-3.159,3.181,3.181,0,0,0-.925-2.233l-3.429-3.427,5.72-6.99a3.77,3.77,0,0,1,2.936-1.391,3.8,3.8,0,0,1,3.793,3.793v6.324h-3.036a3.04,3.04,0,0,0-3.035,3.036v7.082a3.039,3.039,0,0,0,3.035,3.035h2.024v2.024h-1.011a3.039,3.039,0,0,0-3.035,3.036v3.035h-7.516l-8.9-15.128a4.237,4.237,0,0,0-3.666-2.073,4.206,4.206,0,0,0-4.2,4.2,4.2,4.2,0,0,0,.566,2.1l9.531,16.463a5.074,5.074,0,0,0,4.379,2.525h1.712v2.024a2.025,2.025,0,0,0,2.024,2.022h9.132a5.05,5.05,0,0,0,2.81,1.861l5.4,5.4a12.49,12.49,0,0,0-3.644,3.866h-23.818v6.07h48.565v-2.024l-.023-.218a12.553,12.553,0,0,0-11.814-9.877l-5.082-5.082h4.778a2.025,2.025,0,0,0,2.024-2.022v-2.024h2.523l7.115,6.123a3.97,3.97,0,0,0,2.587.959,3.972,3.972,0,0,0,3.963-3.979,3.963,3.963,0,0,0-1.33-2.961l-7.827-6.958a5.049,5.049,0,0,0-3.362-1.279h-23.905v-3.035a1.013,1.013,0,0,1,1.013-1.012h32.377a1.012,1.012,0,0,1,1.011,1.012v4.047h2.024v-4.047a3.038,3.038,0,0,0-2.39-2.963,6.606,6.606,0,0,0,1.594-2.58Zm-43.507-6.358a1.136,1.136,0,0,1-1.134,1.135,1.144,1.144,0,0,1-.8-.332l-7.849-7.849a1.144,1.144,0,0,1-.332-.8,1.135,1.135,0,0,1,1.134-1.134,1.144,1.144,0,0,1,.8.332l7.849,7.849a1.141,1.141,0,0,1,.332.8m-1.011,27.441v-2.024h8.2a5.021,5.021,0,0,0-.1,1.011,5.043,5.043,0,0,0,.1,1.012Zm10.117-1.012a3.039,3.039,0,0,1,3.036-3.035,3.039,3.039,0,0,1,3.035,3.035,3.039,3.039,0,0,1-3.035,3.035,3.039,3.039,0,0,1-3.036-3.035m-18.212,18.212v-2.022h20.81a13.057,13.057,0,0,0-.551,1.8v.218Zm44.492,0h-22.207a10.553,10.553,0,0,1,10.313-8.093h1.579a10.554,10.554,0,0,1,10.314,8.093m-12.639-10.086a12.654,12.654,0,0,0-4.588,1.135l-4.471-4.468a5.037,5.037,0,0,0,2.476-1.758h1.493Zm2.548-7.113h-8.2a5.133,5.133,0,0,0,.1-1.012,5.11,5.11,0,0,0-.1-1.011h8.2Zm7.71-7.328,7.826,6.957a1.948,1.948,0,0,1,.652,1.466,1.942,1.942,0,0,1-1.94,1.94,1.945,1.945,0,0,1-1.266-.469l-7.115-6.124a2.024,2.024,0,0,0-1.321-.489h-13.68a5.035,5.035,0,0,0-4.02-2.024,5.038,5.038,0,0,0-4.021,2.024h-12.868a3.045,3.045,0,0,1-2.628-1.515l-9.531-16.463a2.19,2.19,0,0,1-.295-1.091,2.191,2.191,0,0,1,2.223-2.179,2.184,2.184,0,0,1,1.876,1.074l8.9,15.129a2.032,2.032,0,0,0,1.745,1h33.444a3.035,3.035,0,0,1,2.017.767m-25.923-22.015h12.142a1.012,1.012,0,0,1,1.011,1.012v4.047h-14.164V422.91a1.012,1.012,0,0,1,1.011-1.012m-1.011,8.095v-1.011h14.164v1.011a1.012,1.012,0,0,1-1.011,1.011h-12.142a1.012,1.012,0,0,1-1.011-1.011m5.058,3.035h4.047v2.024h-4.047Zm30.354-3.2-.694,2.075a4.593,4.593,0,0,1-4.365,3.147,4.6,4.6,0,0,1-4.368-3.147l-.692-2.075v-.847h10.118Z" transform="translate(1716.444 90.574)" fill="#363e97"/>
  </g>
</svg>
