<svg xmlns="http://www.w3.org/2000/svg" width="69.87" height="68.741" viewBox="0 0 69.87 68.741">
  <g id="Group_49" data-name="Group 49" transform="translate(-458.856 -492.295)">
    <path id="Path_168" data-name="Path 168" d="M-1277.935,422.614a1.023,1.023,0,0,0,1.426-.252l2.176-3.11a1.021,1.021,0,0,0-.25-1.424,1.023,1.023,0,0,0-1.426.252l-2.177,3.108a1.023,1.023,0,0,0,.252,1.426" transform="translate(1778.154 93.462)" fill="#363e97"/>
    <path id="Path_169" data-name="Path 169" d="M-1273.787,419.747l-.74,3.723a1.025,1.025,0,0,0,1.006,1.223,1.022,1.022,0,0,0,1-.824l.739-3.724a1.021,1.021,0,0,0-.8-1.2,1.023,1.023,0,0,0-1.2.8" transform="translate(1779.27 93.835)" fill="#363e97"/>
    <path id="Path_175" data-name="Path 175" d="M-1276.187,416.023a1.023,1.023,0,0,0-1.405-.345l-3.247,1.968a1.023,1.023,0,0,0-.345,1.406,1.025,1.025,0,0,0,1.405.345l3.247-1.968a1.023,1.023,0,0,0,.345-1.406" transform="translate(1777.292 92.846)" fill="#363e97"/>
    <path id="Path_176" data-name="Path 176" d="M-1300.3,421.018a1.391,1.391,0,0,0,1.224,0c.954-.471,4.072-2.252,4.072-5.385a2.86,2.86,0,0,0-4.683-2.194,2.825,2.825,0,0,0-2.559-.558,2.816,2.816,0,0,0-2.124,2.752c0,3.141,3.117,4.916,4.07,5.385m-.515-5.782a1.329,1.329,0,0,0,1.095.643,1.334,1.334,0,0,0,1.155-.635.809.809,0,0,1,1.515.389c0,1.732-1.829,2.943-2.637,3.4-.81-.449-2.636-1.657-2.636-3.4a.808.808,0,0,1,1.509-.4" transform="translate(1770.577 92.045)" fill="#363e97"/>
    <path id="Path_178" data-name="Path 178" d="M-1294.917,414.49h4.045a1.022,1.022,0,0,0,1.023-1.023,1.023,1.023,0,0,0-1.023-1.024h-4.045a1.023,1.023,0,0,0-1.023,1.024,1.022,1.022,0,0,0,1.023,1.023" transform="translate(1773.035 91.946)" fill="#363e97"/>
    <path id="Path_177" data-name="Path 177" d="M-1294.917,417.281h4.045a1.022,1.022,0,0,0,1.023-1.023,1.023,1.023,0,0,0-1.023-1.024h-4.045a1.023,1.023,0,0,0-1.023,1.024,1.022,1.022,0,0,0,1.023,1.023" transform="translate(1773.035 92.76)" fill="#363e97"/>
    <path id="Path_173" data-name="Path 173" d="M-1294.917,420.071h4.045a1.022,1.022,0,0,0,1.023-1.023,1.023,1.023,0,0,0-1.023-1.024h-4.045a1.023,1.023,0,0,0-1.023,1.024,1.022,1.022,0,0,0,1.023,1.023" transform="translate(1773.035 93.573)" fill="#363e97"/>
    <path id="Path_174" data-name="Path 174" d="M-1250.259,405.126a1.024,1.024,0,0,0,1.024-1.023,1.024,1.024,0,0,0-1.024-1.024h-10.059l-.048,0a1.02,1.02,0,0,0-.891.434l-3.533,5.046-4.481-3.138a10.168,10.168,0,0,0-8.133-1.574l-.354-.249a2.9,2.9,0,0,0-4.027.709l-.813,1.164a2.894,2.894,0,0,0,.709,4.025l.28.2a4.792,4.792,0,0,0,7.256,5.082l.572.4a4.792,4.792,0,0,0,7.256,5.082l.574.4a4.791,4.791,0,0,0,7.256,5.08l.28.2a2.9,2.9,0,0,0,4.025-.71l.815-1.164a2.9,2.9,0,0,0-.71-4.025l-.447-.312a10.167,10.167,0,0,0-4.262-7.1l-4.121-2.885,3.229-4.609Zm-29.4,5.933,3.36,2.353a2.735,2.735,0,0,1-3.36-2.353m7.829,5.481,3.36,2.353a2.734,2.734,0,0,1-3.36-2.353m7.828,5.482c2.037,1.426,1.335.934,3.36,2.353a2.735,2.735,0,0,1-3.36-2.353m8.752.867-.815,1.162a.844.844,0,0,1-1.174.208c-.329-.23-23.18-16.232-23.476-16.437a.849.849,0,0,1-.206-1.174l.815-1.164a.848.848,0,0,1,1.174-.207l23.475,16.436a.849.849,0,0,1,.207,1.175m-2.034-4.953-17.564-12.3a8.091,8.091,0,0,1,4.4,1.463l10.278,7.2a8.1,8.1,0,0,1,2.881,3.638" transform="translate(1776.771 89.217)" fill="#363e97"/>
    <path id="Path_145" data-name="Path 145" d="M-1243.084,437.155h-29.656a1.023,1.023,0,0,0-1.023,1.024,1.023,1.023,0,0,0,1.023,1.024h29.656a.842.842,0,0,1,.843.842v1.866a.845.845,0,0,1-.843.845h-64.089a.846.846,0,0,1-.844-.845v-1.866a.843.843,0,0,1,.844-.842h29.657a1.023,1.023,0,0,0,1.023-1.024,1.023,1.023,0,0,0-1.023-1.024h-11.649a2.871,2.871,0,0,0,.127-.843v-1.866a2.894,2.894,0,0,0-2.89-2.89h-15.245a2.894,2.894,0,0,0-2.89,2.89v1.866a2.87,2.87,0,0,0,.688,1.867,2.872,2.872,0,0,0-.688,1.866v1.866a2.892,2.892,0,0,0,2.748,2.884v.9a2.893,2.893,0,0,0,2.89,2.89h2.827v12.985a1.953,1.953,0,0,0,1.952,1.949h1.931a1.951,1.951,0,0,0,1.95-1.949V448.586h41.275v12.985a1.952,1.952,0,0,0,1.951,1.949h1.931a1.952,1.952,0,0,0,1.951-1.949V448.586h2.826a2.893,2.893,0,0,0,2.89-2.89v-.9a2.891,2.891,0,0,0,2.748-2.884v-1.866a2.894,2.894,0,0,0-2.89-2.89m-64.932-2.709a.846.846,0,0,1,.844-.845h15.245a.845.845,0,0,1,.844.845v1.866a.845.845,0,0,1-.844.845h-15.245a.846.846,0,0,1-.844-.845Zm10.2,27.029h-1.738V448.586h1.738Zm47.107,0h-1.738V448.586h1.738Zm5.717-15.779a.844.844,0,0,1-.843.845h-58.593a.845.845,0,0,1-.843-.845V444.8h60.279Z" transform="translate(1768.919 97.516)" fill="#363e97"/>
    <path id="Path_170" data-name="Path 170" d="M-1278.818,417.378a1.023,1.023,0,0,0,1.023-1.024v-5.613a4.042,4.042,0,0,0-4.037-4.039h-24.193a4.042,4.042,0,0,0-4.037,4.039v16a4.042,4.042,0,0,0,4.037,4.038h24.193a4.043,4.043,0,0,0,4.038-4.038v-5.614a1.024,1.024,0,0,0-1.024-1.024,1.024,1.024,0,0,0-1.023,1.024v5.614a1.994,1.994,0,0,1-1.991,1.991h-24.193a1.994,1.994,0,0,1-1.99-1.991v-16a1.994,1.994,0,0,1,1.99-1.993h24.193a1.994,1.994,0,0,1,1.991,1.993v5.613a1.024,1.024,0,0,0,1.023,1.024" transform="translate(1768.919 90.273)" fill="#363e97"/>
    <path id="Path_171" data-name="Path 171" d="M-1306.156,409.585a1.024,1.024,0,0,0-1.024,1.023V425.2a1.023,1.023,0,0,0,1.024,1.023h22.778a1.023,1.023,0,0,0,1.023-1.023v-14.59a1.023,1.023,0,0,0-1.023-1.023Zm21.754,14.589h-20.731V411.631h20.731Z" transform="translate(1769.759 91.114)" fill="#363e97"/>
  </g>
</svg>
