<svg xmlns="http://www.w3.org/2000/svg" width="75.755" height="50.306" viewBox="0 0 75.755 50.306">
  <g id="Group_50" data-name="Group 50" transform="translate(-702.274 -500.178)">
    <g id="Group_34" data-name="Group 34" transform="translate(702.274 500.178)">
      <g id="Group_29" data-name="Group 29">
        <path id="Path_121" data-name="Path 121" d="M-1095.456,418.055a1.469,1.469,0,0,0,.994-.385l.03-.027a1.48,1.48,0,0,0,.1-2.09,1.478,1.478,0,0,0-2.089-.1l-.029.026a1.48,1.48,0,0,0-.1,2.091A1.473,1.473,0,0,0-1095.456,418.055Z" transform="translate(1128.754 -407.466)" fill="#363e97"/>
        <path id="Path_122" data-name="Path 122" d="M-1095.791,417.929a1.482,1.482,0,0,0-2.093-.008c-1.3,1.293-3.2,3.041-4.28,3.984a1.48,1.48,0,0,0-.141,2.087,1.473,1.473,0,0,0,1.114.508,1.47,1.47,0,0,0,.973-.365c1.1-.961,3.022-2.727,4.418-4.112A1.482,1.482,0,0,0-1095.791,417.929Z" transform="translate(1127.083 -406.76)" fill="#363e97"/>
        <path id="Path_123" data-name="Path 123" d="M-1046.818,442.089l-4.786-4.769a3.4,3.4,0,0,0-2.412-.994,3.4,3.4,0,0,0-2.411.994l-.523.52-4.6-4.6a23.651,23.651,0,0,0,1.789-9.044,1.48,1.48,0,0,0-1.48-1.48c-4.2,0-7.237-3.13-10.458-6.444-3.389-3.487-6.892-7.092-12-7.092s-8.61,3.606-12,7.092c-3.221,3.314-6.261,6.444-10.458,6.444a1.48,1.48,0,0,0-1.48,1.48,23.651,23.651,0,0,0,1.789,9.044l-4.6,4.6-.522-.52a3.4,3.4,0,0,0-2.412-.994,3.4,3.4,0,0,0-2.412.994l-4.785,4.769a3.379,3.379,0,0,0-1,2.41,3.385,3.385,0,0,0,1,2.412l11.621,11.583a3.4,3.4,0,0,0,2.412.994,3.4,3.4,0,0,0,2.412-.994l4.785-4.769a3.379,3.379,0,0,0,1-2.411,3.383,3.383,0,0,0-1-2.411l-.531-.529,3.773-3.775a23.849,23.849,0,0,0,12.4,3.461,23.846,23.846,0,0,0,12.4-3.461l3.775,3.775-.532.529a3.378,3.378,0,0,0-1,2.411,3.378,3.378,0,0,0,1,2.411l4.786,4.769a3.4,3.4,0,0,0,2.411.994,3.4,3.4,0,0,0,2.412-.994l11.623-11.583a3.378,3.378,0,0,0,1-2.412A3.382,3.382,0,0,0-1046.818,442.089Zm-54.614,9.54-4.786,4.769a.456.456,0,0,1-.323.13.454.454,0,0,1-.323-.13l-11.623-11.583a.443.443,0,0,1-.129-.315.443.443,0,0,1,.129-.315l4.786-4.769a.454.454,0,0,1,.323-.13.456.456,0,0,1,.323.13l1.568,1.563h0l8.472,8.443h0l1.581,1.574a.443.443,0,0,1,.129.315A.455.455,0,0,1-1101.432,451.628Zm-.54-5.345-6.376-6.354,3.876-3.876a23.963,23.963,0,0,0,5.9,6.834Zm-2.655-20.707c4.618-.619,7.885-3.979,11.053-7.24,3.1-3.186,6.021-6.2,9.877-6.2s6.78,3.01,9.877,6.2c3.168,3.261,6.435,6.621,11.053,7.24A20.971,20.971,0,0,1-1083.7,445.1,20.973,20.973,0,0,1-1104.627,425.577Zm35.81,17.311a23.961,23.961,0,0,0,5.9-6.834l3.876,3.876-6.376,6.354Zm19.91,1.927L-1060.53,456.4a.454.454,0,0,1-.323.13.458.458,0,0,1-.323-.13l-4.786-4.769a.446.446,0,0,1-.128-.315.446.446,0,0,1,.128-.315l1.581-1.574h0l8.472-8.443h0l1.568-1.563a.458.458,0,0,1,.323-.13.454.454,0,0,1,.323.13l4.786,4.769a.443.443,0,0,1,.129.315A.443.443,0,0,1-1048.907,444.815Z" transform="translate(1121.574 -409.182)" fill="#363e97"/>
        <path id="Path_124" data-name="Path 124" d="M-1090.642,421.886a7.108,7.108,0,0,0-7.1,7.1,7.108,7.108,0,0,0,7.1,7.1,7.108,7.108,0,0,0,7.1-7.1A7.108,7.108,0,0,0-1090.642,421.886Zm0,11.242a4.147,4.147,0,0,1-4.142-4.142,4.147,4.147,0,0,1,4.142-4.142,4.147,4.147,0,0,1,4.142,4.142A4.147,4.147,0,0,1-1090.642,433.128Z" transform="translate(1128.519 -405.48)" fill="#363e97"/>
      </g>
    </g>
  </g>
</svg>
