<svg xmlns="http://www.w3.org/2000/svg" width="55.345" height="55.345" viewBox="0 0 55.345 55.345">
  <g id="Group_51" data-name="Group 51" transform="translate(-934.401 -505.691)">
    <path id="Path_143" data-name="Path 143" d="M-906.122,448.07v-6.108h1.785v-1.786h-10.711v1.786h1.785v6.108a8.76,8.76,0,0,0-1.681.994l-5.46-10.008V434.82h1.786v-1.785H-920.4v-2.678a.893.893,0,0,0-.892-.892h-.892v-2.678a.893.893,0,0,0-.892-.892h-5.357a.893.893,0,0,0-.892.892v2.678h-.892a.893.893,0,0,0-.892.892v2.678H-932.9v1.785h1.786v4.236L-941.283,457.7a4.476,4.476,0,0,0-.545,2.137v.874a4.468,4.468,0,0,0,4.463,4.463h23.209a4.46,4.46,0,0,0,1.826-.4,8.9,8.9,0,0,0,2.637.4,8.936,8.936,0,0,0,8.926-8.926,8.94,8.94,0,0,0-5.355-8.173m-1.786-4.324h-3.571v-1.785h3.571Zm-4.165,5.771a.89.89,0,0,0,.594-.841v-3.145h3.571v3.145a.891.891,0,0,0,.6.841,7.147,7.147,0,0,1,4.515,4.949,2.662,2.662,0,0,0-1.8.776l-.74.74a.9.9,0,0,1-.63.261h-.307a.9.9,0,0,1-.631-.261l-.739-.74a2.655,2.655,0,0,0-1.893-.784h-.307a2.655,2.655,0,0,0-1.893.784l-.739.74a.905.905,0,0,1-.631.261h-.307a.9.9,0,0,1-.631-.261l-.739-.74a2.665,2.665,0,0,0-1.8-.776,7.147,7.147,0,0,1,4.515-4.949m-15.473-21.839h3.571v1.786h-3.571Zm-1.786,3.571h7.142v1.786h-7.142Zm-.109,8.461a.894.894,0,0,0,.109-.427V434.82h7.142v4.463a.894.894,0,0,0,.108.427l3.182,5.835a2.646,2.646,0,0,0-1.767.771l-.74.739a.9.9,0,0,1-.63.262h-.307a.9.9,0,0,1-.631-.262l-.739-.739a2.655,2.655,0,0,0-1.893-.784h-.307a2.656,2.656,0,0,0-1.893.784l-.739.739a.9.9,0,0,1-.631.262h-.306a.9.9,0,0,1-.632-.262l-.74-.739a2.643,2.643,0,0,0-1.767-.771Zm-7.925,23.674a2.681,2.681,0,0,1-2.677-2.678v-.874a2.678,2.678,0,0,1,.327-1.282l6.126-11.233h.841a.9.9,0,0,1,.632.261l.739.74a2.661,2.661,0,0,0,1.895.784h.306a2.656,2.656,0,0,0,1.893-.784l.74-.74a.9.9,0,0,1,.63-.261h.307a.9.9,0,0,1,.632.261l.739.74a2.656,2.656,0,0,0,1.893.784h.307a2.655,2.655,0,0,0,1.893-.784l.739-.74a.905.905,0,0,1,.631-.261h.841l1.616,2.961a8.917,8.917,0,0,0-2.3,5.965,8.908,8.908,0,0,0,3.594,7.142Zm27.672,0a7.15,7.15,0,0,1-7.141-7.142h.154a.9.9,0,0,1,.631.262l.739.739a2.657,2.657,0,0,0,1.893.785h.307a2.657,2.657,0,0,0,1.893-.785l.739-.739a.9.9,0,0,1,.631-.262h.307a.894.894,0,0,1,.63.262l.74.739a2.657,2.657,0,0,0,1.893.785h.307a2.661,2.661,0,0,0,1.893-.785l.739-.739a.9.9,0,0,1,.631-.262h.154a7.15,7.15,0,0,1-7.141,7.142" transform="translate(1876.229 95.866)" fill="#363e97"/>
    <path id="Path_148" data-name="Path 148" d="M-936.385,449.395a2.682,2.682,0,0,0-2.678,2.678,2.681,2.681,0,0,0,2.678,2.677,2.68,2.68,0,0,0,2.677-2.677,2.681,2.681,0,0,0-2.677-2.678m0,3.571a.894.894,0,0,1-.892-.892.9.9,0,0,1,.892-.894.9.9,0,0,1,.892.894.894.894,0,0,1-.892.892" transform="translate(1877.035 102.715)" fill="#363e97"/>
    <path id="Path_149" data-name="Path 149" d="M-930.855,448.012a2.681,2.681,0,0,0-2.677,2.678,2.681,2.681,0,0,0,2.677,2.678,2.682,2.682,0,0,0,2.678-2.678,2.682,2.682,0,0,0-2.678-2.678m0,3.571a.894.894,0,0,1-.892-.892.893.893,0,0,1,.892-.892.893.893,0,0,1,.892.892.894.894,0,0,1-.892.892" transform="translate(1878.646 102.312)" fill="#363e97"/>
    <path id="Path_150" data-name="Path 150" d="M-926.016,445.248a2.682,2.682,0,0,0-2.678,2.678,2.681,2.681,0,0,0,2.678,2.677,2.68,2.68,0,0,0,2.677-2.677,2.681,2.681,0,0,0-2.677-2.678m0,3.571a.894.894,0,0,1-.892-.892.9.9,0,0,1,.892-.894.9.9,0,0,1,.892.894.894.894,0,0,1-.892.892" transform="translate(1880.056 101.506)" fill="#363e97"/>
    <rect id="Rectangle_91" data-name="Rectangle 91" width="1.785" height="1.785" transform="translate(954.933 555.681)" fill="#363e97"/>
    <rect id="Rectangle_92" data-name="Rectangle 92" width="1.785" height="1.786" transform="translate(953.147 553.895)" fill="#363e97"/>
    <rect id="Rectangle_93" data-name="Rectangle 93" width="1.786" height="1.785" transform="translate(951.362 555.681)" fill="#363e97"/>
    <rect id="Rectangle_96" data-name="Rectangle 96" width="1.785" height="1.785" transform="translate(944.22 547.647)" fill="#363e97"/>
    <path id="Path_144" data-name="Path 144" d="M-896.642,423.129h-12.5a.892.892,0,0,0-.892.892v3.571a.892.892,0,0,0,.892.892h.892V460.62a5.361,5.361,0,0,0,5.355,5.356,5.36,5.36,0,0,0,5.356-5.356V428.484h.894a.893.893,0,0,0,.892-.892v-3.571a.893.893,0,0,0-.892-.892m-6.249,41.062a3.576,3.576,0,0,1-3.571-3.571V440.982h7.141V460.62a3.575,3.575,0,0,1-3.571,3.571m3.571-24.994h-7.141V428.484h7.141Zm1.785-12.5h-10.711v-1.785h10.711Z" transform="translate(1885.495 95.061)" fill="#363e97"/>
    <rect id="Rectangle_94" data-name="Rectangle 94" width="1.785" height="1.785" transform="translate(980.819 554.788)" fill="#363e97"/>
    <rect id="Rectangle_95" data-name="Rectangle 95" width="1.786" height="1.785" transform="translate(982.604 551.218)" fill="#363e97"/>
    <rect id="Rectangle_97" data-name="Rectangle 97" width="1.785" height="1.785" transform="translate(980.819 547.647)" fill="#363e97"/>
    <rect id="Rectangle_98" data-name="Rectangle 98" width="1.786" height="1.786" transform="translate(982.604 544.076)" fill="#363e97"/>
    <rect id="Rectangle_99" data-name="Rectangle 99" width="1.785" height="1.786" transform="translate(980.819 540.505)" fill="#363e97"/>
    <path id="Path_156" data-name="Path 156" d="M-930.365,423.271a.893.893,0,0,1,.892-.892h2.678v5.355h1.785v-5.355h8.926v19.637h1.786V422.379h2.677a.894.894,0,0,1,.894.892v18.745h1.785V423.271a2.682,2.682,0,0,0-2.678-2.678H-914.3V419.7a.892.892,0,0,1,.892-.892h10.711a.894.894,0,0,1,.894.892v4.463h1.785V419.7a2.682,2.682,0,0,0-2.678-2.678H-913.4a2.682,2.682,0,0,0-2.678,2.678v.892h-8.926v-4.463a.894.894,0,0,1,.892-.892h30.351a.894.894,0,0,1,.892.892v8.034h1.785v-8.034a2.681,2.681,0,0,0-2.677-2.678h-30.351a2.681,2.681,0,0,0-2.677,2.678v4.463h-2.678a2.682,2.682,0,0,0-2.678,2.678v4.463h1.786Z" transform="translate(1879.049 92.24)" fill="#363e97"/>
    <path id="Path_163" data-name="Path 163" d="M-937.68,424.424A2.682,2.682,0,0,0-935,427.1a2.682,2.682,0,0,0,2.678-2.678A2.681,2.681,0,0,0-935,421.747a2.681,2.681,0,0,0-2.678,2.677m3.571,0a.893.893,0,0,1-.892.892.893.893,0,0,1-.892-.892.893.893,0,0,1,.892-.892.894.894,0,0,1,.892.892" transform="translate(1877.438 94.658)" fill="#363e97"/>
    <path id="Path_172" data-name="Path 172" d="M-937.365,422.379a4.469,4.469,0,0,0,4.463-4.464,4.468,4.468,0,0,0-4.463-4.463,4.468,4.468,0,0,0-4.463,4.463,4.469,4.469,0,0,0,4.463,4.464m0-7.142a2.681,2.681,0,0,1,2.678,2.677,2.682,2.682,0,0,1-2.678,2.678,2.681,2.681,0,0,1-2.677-2.678,2.68,2.68,0,0,1,2.677-2.677" transform="translate(1876.229 92.24)" fill="#363e97"/>
    <path id="Path_164" data-name="Path 164" d="M-938.257,434.418a3.574,3.574,0,0,0,3.571-3.571,3.575,3.575,0,0,0-3.571-3.571,3.575,3.575,0,0,0-3.571,3.571,3.574,3.574,0,0,0,3.571,3.571m0-5.356a1.788,1.788,0,0,1,1.786,1.785,1.788,1.788,0,0,1-1.786,1.786,1.787,1.787,0,0,1-1.785-1.786,1.787,1.787,0,0,1,1.785-1.785" transform="translate(1876.229 96.269)" fill="#363e97"/>
  </g>
</svg>
