<svg xmlns="http://www.w3.org/2000/svg" width="51.212" height="54.255" viewBox="0 0 51.212 54.255">
  <g id="Group_54" data-name="Group 54" transform="translate(-1638.156 -506.781)">
    <path id="Path_166" data-name="Path 166" d="M-345.668,449.9v-1.415a6.275,6.275,0,0,0-3.214-5.474,6.253,6.253,0,0,0,3.048-4.047.8.8,0,0,0-.593-.954.8.8,0,0,0-.956.591,4.656,4.656,0,0,1-3.859,3.557,3.858,3.858,0,0,0,.715-2.241,3.888,3.888,0,0,0-3.885-3.885h-35.4a.62.62,0,0,1-.62-.62.621.621,0,0,1,.62-.621h1.364a.8.8,0,0,0,.794-.8.8.8,0,0,0-.794-.794h-1.364a2.213,2.213,0,0,0-2.21,2.211,2.212,2.212,0,0,0,2.21,2.21h35.4a2.3,2.3,0,0,1,2.295,2.295,2.3,2.3,0,0,1-2.29,2.294h-36.2a4.69,4.69,0,0,1-4.685-4.684V436.11a4.691,4.691,0,0,1,4.685-4.685h38.664a4.674,4.674,0,0,1,4.613,3.873.793.793,0,0,0,.919.646.793.793,0,0,0,.646-.919,6.258,6.258,0,0,0-6.178-5.188h-1.813a9.16,9.16,0,0,0,2.563-6.364,9.093,9.093,0,0,0-.8-3.735.792.792,0,0,0-1.049-.4.794.794,0,0,0-.4,1.049,7.523,7.523,0,0,1,.657,3.088,7.577,7.577,0,0,1-3.4,6.329c-.015.012-.03.023-.045.034h-8.283l-.045-.032a2.726,2.726,0,0,1-.211-.18,5.812,5.812,0,0,1-1.307-1.993,9.181,9.181,0,0,0,1-4.158,9.146,9.146,0,0,0-.145-1.628,6.1,6.1,0,0,1,.456-.511,4.5,4.5,0,0,1,3.2-1.328,4.5,4.5,0,0,1,3.205,1.328,3.438,3.438,0,0,1,1.015,2.45,3.444,3.444,0,0,1-1.015,2.451,2.616,2.616,0,0,1-3.7,0,1.939,1.939,0,0,1-.539-1.7.793.793,0,0,0-.648-.917.8.8,0,0,0-.918.648,3.528,3.528,0,0,0,.982,3.089,4.192,4.192,0,0,0,2.972,1.229,4.2,4.2,0,0,0,2.973-1.229,5.028,5.028,0,0,0,1.481-3.576,5.025,5.025,0,0,0-1.481-3.575,6.083,6.083,0,0,0-4.329-1.792,6.082,6.082,0,0,0-4.174,1.645,9.1,9.1,0,0,0-.619-1.253,7.6,7.6,0,0,1,5.986-2.924,7.583,7.583,0,0,1,4.953,1.843.8.8,0,0,0,1.121-.083.8.8,0,0,0-.081-1.121,9.176,9.176,0,0,0-5.992-2.228,9.179,9.179,0,0,0-6.945,3.179,9.16,9.16,0,0,0-6.941-3.179,9.187,9.187,0,0,0-9.177,9.177,9.139,9.139,0,0,0,2.561,6.364H-390.6a6.281,6.281,0,0,0-6.275,6.274v1.417a6.281,6.281,0,0,0,3.223,5.479,6.278,6.278,0,0,0-3.223,5.479V449.9a6.278,6.278,0,0,0,3.223,5.479,6.281,6.281,0,0,0-3.223,5.479v1.417a6.281,6.281,0,0,0,6.275,6.274h4.486a.8.8,0,0,0,.8-.794.8.8,0,0,0-.8-.8H-390.6a4.69,4.69,0,0,1-4.685-4.684V460.86a4.69,4.69,0,0,1,4.685-4.684h38.664a4.689,4.689,0,0,1,4.684,4.684v1.417a4.692,4.692,0,0,1-3.984,4.632,3.865,3.865,0,0,0,.715-2.242,3.887,3.887,0,0,0-3.885-3.883h-35.4a.621.621,0,0,1-.62-.621.621.621,0,0,1,.62-.621h1.364a.794.794,0,0,0,.794-.794.8.8,0,0,0-.794-.8h-1.364a2.213,2.213,0,0,0-2.21,2.211,2.212,2.212,0,0,0,2.21,2.21h35.4a2.3,2.3,0,0,1,2.295,2.295,2.3,2.3,0,0,1-2.295,2.294H-382.5a.8.8,0,0,0-.8.8.8.8,0,0,0,.8.794h30.555a6.28,6.28,0,0,0,6.274-6.274V460.86a6.278,6.278,0,0,0-3.222-5.479,6.277,6.277,0,0,0,3.222-5.479m-21.644-20.429c.107.125.218.245.332.364h-.661q.17-.178.329-.364m-6.944-13.588a7.6,7.6,0,0,1,7.588,7.588,7.583,7.583,0,0,1-1.226,4.136.772.772,0,0,0-.15.222,7.614,7.614,0,0,1-1.971,1.935.684.684,0,0,0-.088.071h-8.288l-.191-.128a.743.743,0,0,0-.072-.085,5.824,5.824,0,0,1-1.716-4.145,5.824,5.824,0,0,1,1.716-4.145A4.5,4.5,0,0,1-375.448,420a4.5,4.5,0,0,1,3.2,1.328,3.442,3.442,0,0,1,1.015,2.45,3.439,3.439,0,0,1-1.015,2.451,2.617,2.617,0,0,1-3.7,0,1.938,1.938,0,0,1-.537-1.7.8.8,0,0,0-.65-.917.793.793,0,0,0-.917.648,3.529,3.529,0,0,0,.98,3.089,4.208,4.208,0,0,0,5.944,0,5.023,5.023,0,0,0,1.481-3.576,5.022,5.022,0,0,0-1.481-3.575,6.08,6.08,0,0,0-4.328-1.792,6.083,6.083,0,0,0-4.329,1.792,7.4,7.4,0,0,0-2.044,3.836c-.014-.189-.023-.38-.023-.571a7.6,7.6,0,0,1,7.588-7.588m23.014,38.65a3.862,3.862,0,0,0,.715-2.242,3.888,3.888,0,0,0-3.885-3.883h-35.4a.621.621,0,0,1-.62-.621.621.621,0,0,1,.62-.621h1.364a.794.794,0,0,0,.794-.794.794.794,0,0,0-.794-.794h-1.364a2.213,2.213,0,0,0-2.21,2.21,2.212,2.212,0,0,0,2.21,2.211h35.4a2.3,2.3,0,0,1,2.295,2.294,2.3,2.3,0,0,1-2.295,2.295H-390.6a4.691,4.691,0,0,1-4.685-4.685v-1.417A4.69,4.69,0,0,1-390.6,443.8h38.664a4.689,4.689,0,0,1,4.684,4.684V449.9a4.691,4.691,0,0,1-3.984,4.632" transform="translate(2035.036 92.486)" fill="#363e97"/>
  </g>
</svg>
