<svg xmlns="http://www.w3.org/2000/svg" width="59.772" height="59.771" viewBox="0 0 59.772 59.771">
  <g id="Group_55" data-name="Group 55" transform="translate(-227.793 -676.146)">
    <path id="Path_134" data-name="Path 134" d="M-1466.267,579.36a3.987,3.987,0,0,0-.5,5.034,3.986,3.986,0,0,0,4.84,1.471,3.988,3.988,0,0,0,2.388-4.461,3.987,3.987,0,0,0-3.911-3.211,3.993,3.993,0,0,0-2.819,1.166m4.812,2.819a1.993,1.993,0,0,1-1.477,1.927,1.993,1.993,0,0,1-2.243-.93,1.994,1.994,0,0,1,.319-2.407,2.043,2.043,0,0,1,2.818,0,1.981,1.981,0,0,1,.583,1.41" transform="translate(1723.058 140.249)" fill="#363e97"/>
    <path id="Path_140" data-name="Path 140" d="M-1477.639,564a3.983,3.983,0,0,0-3.9,3.208,3.982,3.982,0,0,0,2.384,4.454,3.983,3.983,0,0,0,4.834-1.468,3.984,3.984,0,0,0-.495-5.027,3.969,3.969,0,0,0-2.819-1.166m1.409,5.4a1.993,1.993,0,0,1-2.819,0,1.994,1.994,0,0,1,0-2.819,2.048,2.048,0,0,1,2.82,0,1.993,1.993,0,0,1,0,2.819" transform="translate(1718.925 136.114)" fill="#363e97"/>
    <path id="Path_132" data-name="Path 132" d="M-1484.148,581.13a5.98,5.98,0,0,0,0,8.458,5.979,5.979,0,0,0,8.458,0,5.979,5.979,0,0,0,0-8.458,5.988,5.988,0,0,0-8.459,0m7.05,7.049a3.987,3.987,0,0,1-5.638,0,3.988,3.988,0,0,1,0-5.638,3.987,3.987,0,0,1,5.638,0,4,4,0,0,1,0,5.64" transform="translate(1717.678 140.595)" fill="#363e97"/>
    <path id="Path_125" data-name="Path 125" d="M-1430.879,545.7l-9.513,9.511a2.92,2.92,0,0,0-1.448-.3l-8.986.529a2.991,2.991,0,0,0-1.945.868l-9.768,9.773-1.675,1.674-3.581,3.581a7.964,7.964,0,0,0-6.93-5.86,7.965,7.965,0,0,0-7.919,4.435,7.966,7.966,0,0,0,1.378,8.971,7.967,7.967,0,0,0,8.885,1.854l1.821,1.82-3.848,3.848a9.968,9.968,0,0,0-12.646,2.941,9.969,9.969,0,0,0,.988,12.946,9.967,9.967,0,0,0,12.945.988,9.969,9.969,0,0,0,2.942-12.647l3.848-3.847,1.82,1.82a7.994,7.994,0,0,0,1.843,8.929,7.991,7.991,0,0,0,9.009,1.391,7.992,7.992,0,0,0,4.45-7.956,7.991,7.991,0,0,0-5.9-6.948l3.581-3.582,1.675-1.674,6.784-6.779,2.99-2.991a2.976,2.976,0,0,0,.868-1.942l.529-8.987a2.952,2.952,0,0,0-.3-1.446l9.514-9.514a1,1,0,0,0-.035-1.374,1,1,0,0,0-1.374-.032m-20.481,12.022a.985.985,0,0,1,.65-.288l8.988-.53a1,1,0,0,1,.757.291.983.983,0,0,1,.291.758l-.523,8.86-1.874-1.867a1,1,0,0,0-1.4.012,1,1,0,0,0-.013,1.4l2.117,2.109-1.412,1.41-2.114-2.115a1,1,0,0,0-1.4.013,1,1,0,0,0-.012,1.4l2.114,2.114-1.41,1.41-2.115-2.115a1,1,0,0,0-1.409,0,1,1,0,0,0,0,1.409L-1448,574.1l-1.409,1.408-9.868-9.868Zm-.874,20.611-4.933-4.933-4.936-4.936.848-.847.563-.562,9.868,9.868-.562.562Zm-8.044,6.05-3.235-3.235,5.64-5.637,4.229,4.231-4.036,4.036a7.978,7.978,0,0,0-2.6.606m-7.271-10.476,4.036-4.037,4.232,4.233-5.64,5.638-3.233-3.234a7.982,7.982,0,0,0,.606-2.6Zm-12.174,3.719a5.981,5.981,0,0,1-.742-7.552,5.983,5.983,0,0,1,7.261-2.2,5.982,5.982,0,0,1,3.577,6.692,5.983,5.983,0,0,1-5.867,4.814,5.94,5.94,0,0,1-4.229-1.752m6.344,23.261a7.974,7.974,0,0,1-10.069.992,7.976,7.976,0,0,1-2.937-9.682,7.973,7.973,0,0,1,8.922-4.771,7.978,7.978,0,0,1,6.42,7.821,7.926,7.926,0,0,1-2.336,5.64m2.079-11.948q-.314-.382-.669-.739a9.492,9.492,0,0,0-.74-.67l3.558-3.56,1.411,1.409Zm.691-9.247a8.087,8.087,0,0,0,.754-.656,8.133,8.133,0,0,0,.656-.754l7.147,7.148a7.89,7.89,0,0,0-.754.655,8.113,8.113,0,0,0-.656.754Zm17.671,16.26a5.979,5.979,0,0,1-6.518,1.3,5.981,5.981,0,0,1-3.692-5.526,5.978,5.978,0,0,1,3.692-5.525,5.979,5.979,0,0,1,6.518,1.3,5.94,5.94,0,0,1,1.768,4.228,5.943,5.943,0,0,1-1.768,4.229" transform="translate(1716.778 130.704)" fill="#363e97"/>
  </g>
</svg>
