<svg xmlns="http://www.w3.org/2000/svg" width="52.53" height="52.53" viewBox="0 0 52.53 52.53">
  <g id="Group_52" data-name="Group 52" transform="translate(-1170.356 -508.506)">
    <path id="Path_146" data-name="Path 146" d="M-706.619,441.666l-2.276-8.341a2.633,2.633,0,0,0-2.534-1.935h-9.116l2.562-14.734a.879.879,0,0,0-.239-.764.875.875,0,0,0-.761-.251l-15.622,2.468v-1.6a.876.876,0,0,0-.876-.876h-11.381a.873.873,0,0,0-.669.313.869.869,0,0,0-.192.713l2.561,14.734h-9.116a2.632,2.632,0,0,0-2.535,1.935l-2.275,8.341a.6.6,0,0,0,0,.1.773.773,0,0,0-.03.134v23.638a2.627,2.627,0,0,0,2.627,2.627h47.276a2.627,2.627,0,0,0,2.627-2.627V441.9a.7.7,0,0,1-.031-.23M-732.853,455.9c-20.367,0-24.118-7.131-24.514-8.043V446.5c2.627,2.779,9.085,6.773,24.514,6.773,20.661,0,24.206,8.855,24.514,9.763v1.2c-1.838-3.017-7.5-8.34-24.514-8.34m0-4.378c-20.367,0-24.118-7.131-24.514-8.042v-.713h49.027v16.8c-2.635-3.309-9.094-8.047-24.514-8.047m-3.5-34.144v11.381a.876.876,0,0,0,.876.876.876.876,0,0,0,.876-.876v-8.882l14.687-2.318-3.167,18.2h-19.539l-3.2-18.385Zm-18.767,16.4a.874.874,0,0,1,.845-.644h9.421l.457,2.625h-.71a.875.875,0,0,0-.876.876.875.875,0,0,0,.876.876H-720.6a.875.875,0,0,0,.876-.876.876.876,0,0,0-.876-.876h-.71l.457-2.625h9.421a.877.877,0,0,1,.846.644l1.973,7.234H-757.1Zm-2.245,31.748V450.88c2.627,2.779,9.085,6.775,24.514,6.775,20.011,0,23.229,7.579,23.607,8.754h-47.245a.876.876,0,0,1-.876-.876" transform="translate(1929.474 92.875)" fill="#363e97"/>
    <path id="Path_151" data-name="Path 151" d="M-755.53,446.816a.875.875,0,0,0-.876.876v3.5a.875.875,0,0,0,.876.876.876.876,0,0,0,.876-.876v-3.5a.875.875,0,0,0-.876-.876" transform="translate(1930.264 101.963)" fill="#363e97"/>
    <path id="Path_152" data-name="Path 152" d="M-754.655,453.116a.876.876,0,0,1-.876.876.876.876,0,0,1-.876-.876.875.875,0,0,1,.876-.876.875.875,0,0,1,.876.876" transform="translate(1930.264 103.544)" fill="#363e97"/>
    <path id="Path_165" data-name="Path 165" d="M-751.548,430.546h-2.627a.876.876,0,0,0-.876.876.876.876,0,0,0,.876.876h2.627a.876.876,0,0,0,.876-.876.876.876,0,0,0-.876-.876" transform="translate(1930.659 97.222)" fill="#363e97"/>
    <path id="Path_157" data-name="Path 157" d="M-724.516,438h-5.252a.875.875,0,0,0-.876.876.875.875,0,0,0,.876.876h5.252a.875.875,0,0,0,.876-.876.875.875,0,0,0-.876-.876" transform="translate(1937.771 99.395)" fill="#363e97"/>
    <path id="Path_158" data-name="Path 158" d="M-721.238,438h-1.751a.876.876,0,0,0-.876.876.876.876,0,0,0,.876.876h1.751a.876.876,0,0,0,.876-.876.875.875,0,0,0-.876-.876" transform="translate(1939.747 99.395)" fill="#363e97"/>
  </g>
</svg>
