<svg xmlns="http://www.w3.org/2000/svg" width="52.147" height="55.554" viewBox="0 0 52.147 55.554">
  <g id="Group_56" data-name="Group 56" transform="translate(-467.718 -680.362)">
    <path id="Path_141" data-name="Path 141" d="M-1293.714,559.292a1.085,1.085,0,0,0-1.085,1.085,1.085,1.085,0,0,0,1.085,1.085,1.085,1.085,0,0,0,1.085-1.085,1.085,1.085,0,0,0-1.085-1.085" transform="translate(1773.367 134.741)" fill="#363e97"/>
    <path id="Path_136" data-name="Path 136" d="M-1284.194,575.982h-3.256v-3.256a1.086,1.086,0,0,0-1.085-1.085,1.086,1.086,0,0,0-1.085,1.085v3.256h-3.254a1.085,1.085,0,0,0-1.085,1.085,1.085,1.085,0,0,0,1.085,1.085h3.254v3.256a1.085,1.085,0,0,0,1.085,1.085,1.085,1.085,0,0,0,1.085-1.085v-3.256h3.256a1.085,1.085,0,0,0,1.085-1.085,1.085,1.085,0,0,0-1.085-1.085" transform="translate(1773.612 138.34)" fill="#363e97"/>
    <path id="Path_126" data-name="Path 126" d="M-1252.217,583.643a8.674,8.674,0,0,0-11.856-3.177l-4.408,2.544v-9.422a5.46,5.46,0,0,0-1.085-3.254l-5.425-7.233v-3.08a3.261,3.261,0,0,0,2.171-3.068V551.96a3.26,3.26,0,0,0-3.256-3.254h-19.53a3.259,3.259,0,0,0-3.254,3.254v4.991a3.26,3.26,0,0,0,2.17,3.068v3.08l-5.425,7.233a5.46,5.46,0,0,0-1.085,3.254V594.6a5.431,5.431,0,0,0,5.425,5.424h17.437a8.67,8.67,0,0,0,11.791,3.068l13.154-7.595a8.686,8.686,0,0,0,3.177-11.857m-44.474-31.682a1.086,1.086,0,0,1,1.085-1.085h19.53a1.086,1.086,0,0,1,1.085,1.085v4.991a1.086,1.086,0,0,1-1.085,1.085h-19.53a1.086,1.086,0,0,1-1.085-1.085Zm-3.688,19.675,5.641-7.523a1.082,1.082,0,0,0,.217-.651v-3.254h17.361v2.17h-9.765a1.085,1.085,0,0,0-1.086,1.085,1.085,1.085,0,0,0,1.086,1.085h10.307l5.315,7.089a3.263,3.263,0,0,1,.629,1.591h-30.334a3.285,3.285,0,0,1,.629-1.591m2.6,26.221a3.259,3.259,0,0,1-3.256-3.254v-1.1h19.714a8.7,8.7,0,0,0,.052,4.351Zm17.309-6.51h-20.564V575.4h30.381v8.866l-6.577,3.8a8.619,8.619,0,0,0-3.239,3.285m10.834,9.869a6.506,6.506,0,0,1-8.891-2.381,6.509,6.509,0,0,1,2.381-8.894l5.889-3.4,6.51,11.275Zm13.154-7.595-5.385,3.11-6.51-11.275,5.385-3.11a6.506,6.506,0,0,1,8.893,2.383,6.515,6.515,0,0,1-2.383,8.893" transform="translate(1770.919 131.656)" fill="#363e97"/>
  </g>
</svg>
