<svg xmlns="http://www.w3.org/2000/svg" width="53.038" height="59.224" viewBox="0 0 53.038 59.224">
  <g id="Group_53" data-name="Group 53" transform="translate(-1405.002 -501.812)">
    <path id="Path_159" data-name="Path 159" d="M-547.586,425.192a.987.987,0,0,0-.988-.987.987.987,0,0,0-.987.987v2.961h-.987a.988.988,0,0,0-.988.987v4.443a3.455,3.455,0,0,0,3.455,3.455,3.455,3.455,0,0,0,3.456-3.455v-4.443a.987.987,0,0,0-.988-.987h-1.973Zm.987,8.39a1.48,1.48,0,0,1-1.481,1.48,1.48,1.48,0,0,1-1.48-1.48v-3.455h2.961Z" transform="translate(1989.967 95.374)" fill="#363e97"/>
    <path id="Path_147" data-name="Path 147" d="M-576.663,449.188a1.973,1.973,0,0,0,1.957,1.729h6.039V466.71a2.961,2.961,0,0,0,2.961,2.961h29.612a2.962,2.962,0,0,0,2.961-2.961V450.917h6.037a1.976,1.976,0,0,0,1.958-1.729l.74-5.924a1.976,1.976,0,0,0-.478-1.55,1.976,1.976,0,0,0-1.479-.669h-.856v-13.01a13.656,13.656,0,0,0-13.641-13.641.691.691,0,0,0-.116.025l-.874-2.623a1.971,1.971,0,0,0-1.874-1.35h-3.236a.987.987,0,0,0-.987.987v1.481c0,.7-1.267,1.48-2.961,1.48s-2.961-.781-2.961-1.48v-1.481a.988.988,0,0,0-.988-.987h-3.236a1.973,1.973,0,0,0-1.875,1.35l-.874,2.623a.69.69,0,0,0-.114-.025,13.657,13.657,0,0,0-13.641,13.641v13.01h-.856a1.974,1.974,0,0,0-1.48.668,1.967,1.967,0,0,0-.479,1.551Zm49.567-.245h-6.037V443.02h6.779Zm-2.089-20.907v13.01h-3.948V427.228a.988.988,0,0,0-.988-.988.987.987,0,0,0-.987.988V466.71a.987.987,0,0,1-.987.987h-9.87V433.39l6.307-12.073a1.962,1.962,0,0,0,.358-1.888l-1.01-3.032a11.671,11.671,0,0,1,11.124,11.64m-11.987-7.985a1.006,1.006,0,0,0-.177.24l-4.615,8.836V412.42h2.248Zm-9.728-3.682a6.411,6.411,0,0,0,2.961-.691V467.7h-5.922V415.679a6.4,6.4,0,0,0,2.961.691m-7.185-3.949h2.25v16.707l-4.617-8.836a1.006,1.006,0,0,0-.177-.24Zm-14.531,15.616a11.671,11.671,0,0,1,11.124-11.64l-1.01,3.032a1.967,1.967,0,0,0,.358,1.891l6.309,12.071V467.7h-9.87a.987.987,0,0,1-.988-.987V427.228a.987.987,0,0,0-.987-.988.987.987,0,0,0-.987.988v13.818h-3.949Zm-.987,14.984h4.936v5.922h-6.039l-.74-5.922Z" transform="translate(1982.423 91.365)" fill="#363e97"/>
    <path id="Path_160" data-name="Path 160" d="M-574.178,438.884a1.029,1.029,0,0,0,.7.288,1.036,1.036,0,0,0,.376-.079,1.1,1.1,0,0,0,.325-.209,1.113,1.113,0,0,0,.208-.324,1,1,0,0,0,.079-.377,1.029,1.029,0,0,0-.287-.7,1.12,1.12,0,0,0-.325-.208,1.024,1.024,0,0,0-1.076.208,1.491,1.491,0,0,0-.119.148.734.734,0,0,0-.089.177.663.663,0,0,0-.059.177,1.7,1.7,0,0,0-.019.2,1.021,1.021,0,0,0,.079.377,1.113,1.113,0,0,0,.208.324" transform="translate(1983.285 99.163)" fill="#363e97"/>
    <path id="Path_161" data-name="Path 161" d="M-538.94,437.808a.734.734,0,0,0-.089-.177,1.436,1.436,0,0,0-.118-.147,1.03,1.03,0,0,0-1.077-.209,1.157,1.157,0,0,0-.325.209,1.032,1.032,0,0,0-.285.7,1,1,0,0,0,.079.377.9.9,0,0,0,.532.533,1.041,1.041,0,0,0,.376.079,1.041,1.041,0,0,0,.7-.288,1.126,1.126,0,0,0,.207-.324,1,1,0,0,0,.079-.377,1.258,1.258,0,0,0-.019-.2.642.642,0,0,0-.059-.178" transform="translate(1993.085 99.162)" fill="#363e97"/>
    <path id="Path_167" data-name="Path 167" d="M-563.541,434.045a.987.987,0,0,0,.987-.987v-.988a.987.987,0,0,0-.987-.987.987.987,0,0,0-.987.987v.988a.987.987,0,0,0,.987.987" transform="translate(1986.181 97.379)" fill="#363e97"/>
    <path id="Path_162" data-name="Path 162" d="M-563.541,439.4a.987.987,0,0,0,.987-.988v-.987a.987.987,0,0,0-.987-.987.987.987,0,0,0-.987.987v.987a.987.987,0,0,0,.987.988" transform="translate(1986.181 98.938)" fill="#363e97"/>
    <path id="Path_155" data-name="Path 155" d="M-563.541,444.746a.987.987,0,0,0,.987-.987v-.988a.987.987,0,0,0-.987-.987.987.987,0,0,0-.987.987v.988a.987.987,0,0,0,.987.987" transform="translate(1986.181 100.497)" fill="#363e97"/>
    <path id="Path_153" data-name="Path 153" d="M-545.394,452.4a6,6,0,0,1-3.4-5.039.988.988,0,0,0-.987-.988.988.988,0,0,0-.987.988,7.964,7.964,0,0,0,4.494,6.811.989.989,0,0,0,.985-.059.99.99,0,0,0,.442-.883.987.987,0,0,0-.545-.824Z" transform="translate(1990.189 101.833)" fill="#363e97"/>
    <path id="Path_154" data-name="Path 154" d="M-566.6,454.267a1,1,0,0,0,.44-.1,7.968,7.968,0,0,0,4.494-6.811.987.987,0,0,0-.988-.988.987.987,0,0,0-.985.988,6.023,6.023,0,0,1-3.4,5.034.985.985,0,0,0-.529,1.115.985.985,0,0,0,.971.761" transform="translate(1985.287 101.833)" fill="#363e97"/>
  </g>
</svg>
