<svg xmlns="http://www.w3.org/2000/svg" width="56.265" height="56.306" viewBox="0 0 56.265 56.306">
  <g id="Group_57" data-name="Group 57" transform="translate(-698.889 -679.611)">
    <path id="Path_130" data-name="Path 130" d="M-1092.194,571.126a14.066,14.066,0,0,0-17.761-1.749,14.067,14.067,0,0,0-5.18,17.079,14.067,14.067,0,0,0,15.74,8.411,14.065,14.065,0,0,0,11.322-13.8,13.98,13.98,0,0,0-4.121-9.945m-1.326,18.567a12.191,12.191,0,0,1-15.392,1.516,12.19,12.19,0,0,1-4.489-14.8,12.188,12.188,0,0,1,13.64-7.291,12.19,12.19,0,0,1,9.812,11.955,12.11,12.11,0,0,1-3.571,8.62Z" transform="translate(1825.412 136.989)" fill="#363e97"/>
    <path id="Path_137" data-name="Path 137" d="M-1102.049,570.848a.937.937,0,0,0-.937-.938,10.316,10.316,0,0,0-10.316,10.315.937.937,0,0,0,.938.938.939.939,0,0,0,.939-.938,8.44,8.44,0,0,1,8.439-8.439.937.937,0,0,0,.938-.938" transform="translate(1826.258 137.835)" fill="#363e97"/>
    <path id="Path_133" data-name="Path 133" d="M-1095.724,577.171a.937.937,0,0,0-.937.938,8.44,8.44,0,0,1-8.439,8.439.939.939,0,0,0-.939.938.939.939,0,0,0,.939.939,10.316,10.316,0,0,0,10.314-10.316.937.937,0,0,0-.937-.937" transform="translate(1828.375 139.951)" fill="#363e97"/>
    <path id="Path_131" data-name="Path 131" d="M-1085.331,583.706a3.283,3.283,0,0,0-3.283,3.283,3.282,3.282,0,0,0,3.283,3.282,3.281,3.281,0,0,0,3.281-3.282,3.281,3.281,0,0,0-3.281-3.283m0,4.689a1.407,1.407,0,0,1-1.406-1.406,1.406,1.406,0,0,1,1.406-1.406,1.405,1.405,0,0,1,1.406,1.406,1.406,1.406,0,0,1-1.406,1.406" transform="translate(1833.453 141.855)"/>
    <path id="Path_138" data-name="Path 138" d="M-1100.716,578.745a3.752,3.752,0,0,0-3.751-3.752,3.751,3.751,0,0,0-3.75,3.752,3.75,3.75,0,0,0,3.75,3.75,3.751,3.751,0,0,0,3.751-3.75m-5.627,0a1.875,1.875,0,0,1,1.875-1.875,1.876,1.876,0,0,1,1.876,1.875,1.876,1.876,0,0,1-1.876,1.875,1.875,1.875,0,0,1-1.875-1.875" transform="translate(1827.74 139.316)" fill="#363e97"/>
    <path id="Path_127" data-name="Path 127" d="M-1068.867,581.885a6.572,6.572,0,0,0-6.564-6.564H-1086a17.909,17.909,0,0,0-1.219-1.344c-.132-.132-.274-.244-.408-.369V567.82a6.571,6.571,0,0,0-6.564-6.564h-16.65l-1.179-9.717a2.828,2.828,0,0,0-2.4-2.446l-6.564-.939a2.777,2.777,0,0,0-2.072.526,2.812,2.812,0,0,0-1.108,1.862,2.78,2.78,0,0,0,.523,2.075,2.812,2.812,0,0,0,1.866,1.108l4.426.63,2.7,22.351a17.818,17.818,0,0,0,.313,20.249,17.817,17.817,0,0,0,19.05,6.875,17.818,17.818,0,0,0,13.174-15.382h7.615v1.9c-.156-.012-.31-.025-.469-.025a7.054,7.054,0,0,0-6.828,5.21,7.054,7.054,0,0,0,3.266,7.942,7.051,7.051,0,0,0,8.517-1.1,7.054,7.054,0,0,0,1.14-8.512Zm-14.066-.938h7.5a.938.938,0,0,1,.938.938v.938h-7.92a17.537,17.537,0,0,0-.519-1.875m-11.252-17.816a4.693,4.693,0,0,1,4.688,4.689v4.25a17.612,17.612,0,0,0-1.875-1.18v-3.07a2.813,2.813,0,0,0-2.813-2.814h-16.2l-.227-1.875Zm-15.391,8.54-.581-4.79h15.972a.939.939,0,0,1,.938.939v2.2a17.877,17.877,0,0,0-16.329,1.653m-5.91-17.543a1.876,1.876,0,0,0-1.595-1.631l-4.427-.629a.947.947,0,0,1-.629-.375.918.918,0,0,1-.172-.684.948.948,0,0,1,.376-.629.921.921,0,0,1,.685-.172l6.564.938a.949.949,0,0,1,.806.819l2.571,21.212c-.376.319-.75.643-1.1,1-.212.212-.4.44-.6.656Zm26.945,43.718a15.932,15.932,0,0,1-22.529-.008,15.933,15.933,0,0,1,0-22.53,15.932,15.932,0,0,1,22.529-.008,15.96,15.96,0,0,1,0,22.546m14.984-11.273H-1082a18.188,18.188,0,0,0-.106-1.875h8.553a.938.938,0,0,0,.938-.938v-1.876a2.813,2.813,0,0,0-2.813-2.813h-8.243a17.625,17.625,0,0,0-1.006-1.875h9.249a4.694,4.694,0,0,1,4.689,4.688v9.86a7.028,7.028,0,0,0-1.876-1.01v-3.223a.938.938,0,0,0-.938-.938m-1.406,15.941a5.158,5.158,0,0,1-5.158-5.158,5.157,5.157,0,0,1,5.158-5.157,5.157,5.157,0,0,1,5.158,5.157,5.163,5.163,0,0,1-5.158,5.158" transform="translate(1823.084 131.486)" fill="#363e97"/>
  </g>
</svg>
