<svg xmlns="http://www.w3.org/2000/svg" width="39.439" height="56.306" viewBox="0 0 39.439 56.306">
  <g id="Group_58" data-name="Group 58" transform="translate(-942.354 -679.611)">
    <g id="Group_39" data-name="Group 39">
      <path id="Path_128" data-name="Path 128" d="M-901.618,555.8a8.453,8.453,0,0,0-6.085-7.347,8.453,8.453,0,0,0-9.054,3.006,2.706,2.706,0,0,0-.52,2.088,2.857,2.857,0,0,0,1.195,1.9,2.835,2.835,0,0,0,3.8-.555,2.816,2.816,0,0,1,3.434-.866,2.817,2.817,0,0,1,1.567,3.177,2.816,2.816,0,0,1-2.778,2.2,2.861,2.861,0,0,0-2,.814,2.646,2.646,0,0,0-.783,1.884v16.082a1.878,1.878,0,0,0-1.878,1.878v2.817a1.866,1.866,0,0,0,.24.9l-1.179,15.061a5.632,5.632,0,0,0,2.849,4.861,5.631,5.631,0,0,0,5.633-.036,5.635,5.635,0,0,0,2.786-4.9l-1.169-15a1.844,1.844,0,0,0,.23-.885v-2.817a1.878,1.878,0,0,0-1.878-1.878V564.552a8.433,8.433,0,0,0,5.6-8.753m-5.757,28.95.952,12.206h-7.214l.954-12.206Zm-2.656,17.841a3.751,3.751,0,0,1-3.757-3.683v-.074h7.512a3.757,3.757,0,0,1-3.755,3.757m2.817-19.719h-5.635v-2.817h5.635Zm-1.174-19.923a.939.939,0,0,0-.7.909v14.319h-1.879V562.094a.765.765,0,0,1,.23-.553.98.98,0,0,1,.7-.267,4.743,4.743,0,0,0,2.353-.631,4.692,4.692,0,0,0,2.322-4.7,4.694,4.694,0,0,0-3.475-3.922,4.692,4.692,0,0,0-4.942,1.74.957.957,0,0,1-1.236.14.97.97,0,0,1-.406-.646.843.843,0,0,1,.159-.657,6.573,6.573,0,0,1,7.04-2.341,6.57,6.57,0,0,1,4.737,5.708,6.566,6.566,0,0,1-4.9,6.981" transform="translate(1883.373 131.486)" fill="#363e97"/>
      <path id="Path_129" data-name="Path 129" d="M-918.767,556.579a8.427,8.427,0,0,0-2.441-5.932c-.014-.014-.017-.034-.031-.046s-.034-.018-.047-.031a8.461,8.461,0,0,0-3.16-1.964l-.017-.008a8.43,8.43,0,0,0-8.739,2,8.431,8.431,0,0,0-2,8.738l.006.017a8.447,8.447,0,0,0,1.965,3.16c.013.014.017.032.031.045s.031.018.045.031a8.465,8.465,0,0,0,3.116,1.949v13.639a1.878,1.878,0,0,0-1.878,1.878v2.817a1.839,1.839,0,0,0,.24.9l-1.179,15.06A5.631,5.631,0,0,0-930,603.693a5.634,5.634,0,0,0,5.635-.036,5.633,5.633,0,0,0,2.784-4.9l-1.167-15a1.828,1.828,0,0,0,.229-.885v-2.817a1.878,1.878,0,0,0-1.878-1.878V564.537a8.459,8.459,0,0,0,5.634-7.958m-8.451,6.573a6.536,6.536,0,0,1-3.928-1.315l9.187-9.187a6.563,6.563,0,0,1,.622,6.879,6.562,6.562,0,0,1-5.881,3.622m-6.009-3.929,8.656-8.656a6.5,6.5,0,0,1,1.284.755l-9.19,9.185a6.483,6.483,0,0,1-.75-1.284m6.009-9.217c.177,0,.35.013.524.026l-7.07,7.07c-.013-.174-.026-.347-.026-.524a6.579,6.579,0,0,1,6.572-6.572m2.658,34.74.952,12.206h-7.215l.956-12.206Zm-2.658,17.841a3.749,3.749,0,0,1-3.755-3.683v-.074h7.511a3.756,3.756,0,0,1-3.755,3.757m2.817-19.719h-5.633v-2.817h5.633Zm-1.878-4.694h-1.878v-13.2a8.011,8.011,0,0,0,1.878,0Z" transform="translate(1878.023 131.487)" fill="#363e97"/>
    </g>
  </g>
</svg>
