<svg xmlns="http://www.w3.org/2000/svg" width="56.034" height="56.041" viewBox="0 0 56.034 56.041">
  <g id="Group_59" data-name="Group 59" transform="translate(-1168.604 -679.876)">
    <g id="Group_38" data-name="Group 38">
      <path id="Path_135" data-name="Path 135" d="M-705.928,587.652l-11.295-11.3,11.3-11.308a5.106,5.106,0,0,0,0-7.192l-8.034-8.034a5.1,5.1,0,0,0-7.192,0l-11.309,11.295-11.3-11.295a5.093,5.093,0,0,0-7.2,0l-8.024,8.025a5.1,5.1,0,0,0,0,7.2l11.293,11.3-11.3,11.3a5.105,5.105,0,0,0,0,7.193l8.033,8.032a5.1,5.1,0,0,0,7.192,0l11.31-11.3,11.3,11.3a5.09,5.09,0,0,0,7.2,0l8.025-8.025a5.1,5.1,0,0,0,0-7.2m-13.9-36.516a3.232,3.232,0,0,1,4.555,0l8.034,8.033a3.233,3.233,0,0,1,0,4.557l-11.3,11.308-12.6-12.6Zm-25.251,50.427a3.23,3.23,0,0,1-4.555,0l-8.034-8.033a3.234,3.234,0,0,1,0-4.556l11.3-11.31,12.594,12.6Zm37.836-8.033-8.022,8.03a3.307,3.307,0,0,1-4.561,0l-37.831-37.831a3.231,3.231,0,0,1,0-4.561l8.027-8.026a3.3,3.3,0,0,1,4.56,0l37.831,37.829a3.227,3.227,0,0,1,0,4.565Z" transform="translate(1929.078 131.546)" fill="#363e97"/>
      <path id="Path_139" data-name="Path 139" d="M-738.182,560.9a.934.934,0,0,0-1.32,0l-8.407,8.407a.935.935,0,0,0,0,1.321l14.012,14.011a.932.932,0,0,0,1.32,0l8.407-8.407a.932.932,0,0,0,0-1.32Zm4.945,21.758-12.691-12.691,7.086-7.086,12.691,12.691Z" transform="translate(1932.66 135.129)" fill="#363e97"/>
      <rect id="Rectangle_75" data-name="Rectangle 75" width="1.869" height="1.869" transform="translate(1205.962 696.688)" fill="#363e97"/>
      <rect id="Rectangle_79" data-name="Rectangle 79" width="1.869" height="1.869" transform="translate(1209.698 692.95)" fill="#363e97"/>
      <rect id="Rectangle_85" data-name="Rectangle 85" width="1.869" height="1.869" transform="translate(1213.434 689.214)" fill="#363e97"/>
      <rect id="Rectangle_80" data-name="Rectangle 80" width="1.869" height="1.869" transform="translate(1202.225 692.95)" fill="#363e97"/>
      <rect id="Rectangle_86" data-name="Rectangle 86" width="1.869" height="1.869" transform="translate(1205.962 689.214)" fill="#363e97"/>
      <rect id="Rectangle_89" data-name="Rectangle 89" width="1.869" height="1.869" transform="translate(1209.698 685.478)" fill="#363e97"/>
      <rect id="Rectangle_73" data-name="Rectangle 73" width="1.869" height="1.869" transform="translate(1209.698 700.424)" fill="#363e97"/>
      <rect id="Rectangle_76" data-name="Rectangle 76" width="1.869" height="1.869" transform="translate(1213.434 696.688)" fill="#363e97"/>
      <rect id="Rectangle_81" data-name="Rectangle 81" width="1.869" height="1.869" transform="translate(1217.17 692.95)" fill="#363e97"/>
      <rect id="Rectangle_77" data-name="Rectangle 77" width="1.869" height="1.869" transform="translate(1177.938 696.688)" fill="#363e97"/>
      <rect id="Rectangle_82" data-name="Rectangle 82" width="1.869" height="1.869" transform="translate(1181.676 692.95)" fill="#363e97"/>
      <rect id="Rectangle_87" data-name="Rectangle 87" width="1.869" height="1.869" transform="translate(1185.412 689.214)" fill="#363e97"/>
      <rect id="Rectangle_83" data-name="Rectangle 83" width="1.869" height="1.869" transform="translate(1174.202 692.95)" fill="#363e97"/>
      <rect id="Rectangle_88" data-name="Rectangle 88" width="1.869" height="1.869" transform="translate(1177.938 689.214)" fill="#363e97"/>
      <rect id="Rectangle_90" data-name="Rectangle 90" width="1.869" height="1.869" transform="translate(1181.676 685.478)" fill="#363e97"/>
      <rect id="Rectangle_74" data-name="Rectangle 74" width="1.869" height="1.869" transform="translate(1181.676 700.424)" fill="#363e97"/>
      <rect id="Rectangle_78" data-name="Rectangle 78" width="1.869" height="1.869" transform="translate(1185.412 696.688)" fill="#363e97"/>
      <rect id="Rectangle_84" data-name="Rectangle 84" width="1.869" height="1.869" transform="translate(1189.148 692.95)" fill="#363e97"/>
      <rect id="Rectangle_65" data-name="Rectangle 65" width="1.869" height="1.869" transform="translate(1205.962 724.71)"/>
      <rect id="Rectangle_68" data-name="Rectangle 68" width="1.869" height="1.869" transform="translate(1209.698 720.973)" fill="#363e97"/>
      <rect id="Rectangle_69" data-name="Rectangle 69" width="1.869" height="1.869" transform="translate(1213.434 717.237)" fill="#363e97"/>
      <rect id="Rectangle_66" data-name="Rectangle 66" width="1.869" height="1.869" transform="translate(1202.225 720.973)" fill="#363e97"/>
      <rect id="Rectangle_67" data-name="Rectangle 67" width="1.869" height="1.869" transform="translate(1205.962 717.237)" fill="#363e97"/>
      <rect id="Rectangle_70" data-name="Rectangle 70" width="1.869" height="1.869" transform="translate(1209.698 713.501)" fill="#363e97"/>
      <rect id="Rectangle_71" data-name="Rectangle 71" width="1.869" height="1.869" transform="translate(1213.434 724.71)"/>
      <rect id="Rectangle_72" data-name="Rectangle 72" width="1.869" height="1.869" transform="translate(1217.17 720.973)" fill="#363e97"/>
      <rect id="Rectangle_57" data-name="Rectangle 57" width="1.869" height="1.869" transform="translate(1177.938 724.71)"/>
      <rect id="Rectangle_60" data-name="Rectangle 60" width="1.869" height="1.869" transform="translate(1181.676 720.973)" fill="#363e97"/>
      <rect id="Rectangle_61" data-name="Rectangle 61" width="1.869" height="1.869" transform="translate(1185.412 717.237)" fill="#363e97"/>
      <rect id="Rectangle_58" data-name="Rectangle 58" width="1.869" height="1.869" transform="translate(1174.202 720.973)" fill="#363e97"/>
      <rect id="Rectangle_59" data-name="Rectangle 59" width="1.869" height="1.869" transform="translate(1177.938 717.237)" fill="#363e97"/>
      <rect id="Rectangle_64" data-name="Rectangle 64" width="1.869" height="1.869" transform="translate(1181.676 713.501)" fill="#363e97"/>
      <rect id="Rectangle_62" data-name="Rectangle 62" width="1.869" height="1.869" transform="translate(1185.412 724.71)"/>
      <rect id="Rectangle_63" data-name="Rectangle 63" width="1.869" height="1.869" transform="translate(1189.148 720.973)" fill="#363e97"/>
    </g>
  </g>
</svg>
